<svg xmlns="http://www.w3.org/2000/svg" viewBox="0 0 1306 542" preserveAspectRatio="xMidYMid meet" role="img" aria-label="Класически Cadillac DeVille">
  <title>Класически Cadillac DeVille</title>
  <g transform="translate(0.000000,542.000000) scale(0.100000,-0.100000)">
    <g fill="#8A2304">
      <path d="M6685 5364 c-465 -16 -453 -15 -930 -89 -88 -14 -239 -32 -335 -40
-297 -25 -363 -53 -437 -184 -20 -35 -68 -98 -107 -140 -39 -42 -141 -153
-226 -246 -85 -93 -189 -206 -230 -250 -41 -45 -104 -117 -140 -160 -36 -43
-94 -110 -130 -149 -36 -39 -76 -88 -90 -108 -26 -38 -57 -58 -92 -58 -14 0
-18 -5 -15 -15 7 -17 -46 -35 -102 -35 -19 0 -57 -7 -85 -15 -150 -44 -774
-175 -877 -185 -137 -13 -375 -40 -714 -80 -458 -55 -648 -81 -865 -115 -118
-19 -282 -43 -365 -55 -82 -11 -186 -27 -230 -35 -44 -8 -120 -17 -170 -20
-94 -4 -133 -15 -280 -75 -50 -20 -106 -43 -125 -50 -19 -8 -59 -29 -88 -48
-52 -34 -52 -34 -52 -220 0 -189 9 -281 65 -692 14 -96 34 -208 45 -249 24
-87 23 -90 -57 -116 -53 -17 -53 -17 -53 -87 0 -62 3 -72 24 -89 13 -10 34
-44 46 -76 54 -138 191 -400 237 -455 90 -106 137 -114 455 -74 106 13 238 27
293 31 55 3 124 8 152 11 29 3 70 3 91 -1 37 -6 39 -9 82 -103 103 -224 245
-371 407 -422 34 -10 81 -28 105 -39 24 -10 66 -22 93 -26 28 -4 57 -9 65 -10
140 -24 201 -28 296 -16 54 8 128 17 164 21 71 8 213 56 257 88 45 32 125 62
168 64 22 1 65 -4 95 -10 110 -22 305 -47 660 -83 180 -19 220 -20 330 -10
109 10 131 9 175 -5 28 -9 102 -20 165 -25 344 -26 406 -33 745 -83 172 -26
295 -36 825 -67 205 -12 360 -24 447 -34 38 -5 86 -3 121 4 61 12 92 8 92 -13
0 -6 24 -36 53 -67 28 -31 68 -78 87 -104 25 -35 50 -55 90 -73 30 -13 80 -37
110 -52 30 -16 102 -45 160 -65 105 -37 105 -37 290 -39 218 -1 261 8 368 82
97 66 208 206 311 394 23 41 41 84 41 96 0 25 28 35 86 30 35 -3 42 1 67 35
15 20 31 37 37 37 5 0 33 11 62 24 47 21 189 81 437 185 40 17 91 34 113 38
22 3 59 21 83 38 30 24 81 44 181 74 77 22 180 53 229 69 99 32 208 66 270 83
22 7 54 17 70 24 17 7 57 18 90 25 33 7 75 21 95 31 19 11 54 19 78 19 25 0
41 4 37 10 -6 10 205 80 245 80 14 0 45 9 67 20 22 11 59 22 82 26 23 4 44 11
47 15 3 5 18 9 34 9 16 0 54 11 83 25 30 13 74 27 98 30 24 3 61 11 81 17 34
10 41 8 72 -15 19 -15 47 -53 64 -89 17 -35 40 -73 51 -86 35 -40 138 -80 241
-92 181 -23 231 -23 348 -4 113 18 113 18 176 89 34 38 71 86 81 105 10 19 22
42 27 50 65 111 141 406 164 637 5 59 10 74 26 79 10 3 24 1 31 -4 30 -25 85
-16 202 33 17 7 41 16 55 20 14 4 86 37 160 72 74 35 162 75 195 87 99 38 199
92 232 126 39 40 91 145 132 267 31 92 31 92 31 605 0 513 0 513 -34 564 -34
51 -34 51 -233 56 -109 3 -259 4 -333 3 -538 -10 -706 -4 -726 24 -9 12 -28
15 -85 13 -81 -3 -76 -5 -248 134 -99 79 -232 241 -363 442 -9 14 -29 63 -44
108 -25 78 -31 87 -93 142 -84 74 -125 98 -181 106 -39 6 -145 56 -160 75 -3
4 -37 28 -76 55 -72 48 -132 67 -264 81 -25 3 -76 10 -115 15 -38 5 -108 12
-155 15 -47 3 -102 8 -123 11 -20 3 -49 7 -65 9 -44 6 -355 33 -517 45 -82 6
-195 15 -250 20 -352 34 -1643 48 -2310 24z"/>
    </g>
    <g fill="#1A0808">
      <path d="M9633 5283 c9 -2 23 -2 30 0 6 3 -1 5 -18 5 -16 0 -22 -2 -12 -5z"/>
      <path d="M5108 5146 c-55 -15 -72 -27 -92 -66 -16 -32 -18 -33 61 8 23 12 52
22 65 21 13 0 52 4 88 11 125 21 953 11 1620 -20 235 -11 1130 -71 1465 -98
116 -10 239 -15 275 -11 62 6 65 10 10 13 -14 0 -30 4 -36 8 -12 8 -469 44
-929 73 -469 30 -654 40 -1225 64 -327 14 -1246 12 -1302 -3z"/>
      <path d="M5154 5064 c-38 -5 -54 -17 -191 -157 -200 -202 -436 -454 -512 -547
-35 -41 6 -3 90 85 239 251 570 576 598 587 44 17 487 22 856 9 193 -7 483
-16 645 -21 162 -5 394 -16 515 -25 121 -8 393 -26 605 -40 488 -32 743 -52
895 -71 66 -8 165 -19 220 -24 55 -5 123 -12 150 -15 33 -4 47 -3 40 4 -8 8
-208 35 -410 56 -71 7 -675 50 -1195 85 -787 52 -1173 68 -1795 74 -258 2
-489 2 -511 0z"/>
      <path d="M8690 4990 c-35 -7 -35 -7 -3 -9 17 0 35 4 38 9 3 6 5 9 3 9 -2 -1
-19 -5 -38 -9z"/>
      <path d="M8740 4991 c0 -5 9 -7 20 -4 11 3 20 7 20 9 0 2 -9 4 -20 4 -11 0
-20 -4 -20 -9z"/>
      <path d="M8800 4990 c10 -6 5 -10 -16 -13 -29 -4 -29 -4 3 -6 78 -3 341 -54
371 -72 18 -10 39 -19 47 -19 16 0 50 -45 58 -75 4 -16 5 -16 6 -3 1 14 7 16
31 12 16 -4 42 -1 57 5 71 29 564 49 806 32 53 -3 98 -4 100 -1 1 3 57 3 123
-1 101 -5 128 -10 157 -28 77 -47 215 -219 332 -411 58 -96 218 -392 213 -395
-110 -71 -170 -109 -292 -184 -82 -50 -146 -91 -141 -91 13 0 131 68 235 135
141 91 191 118 184 100 -3 -8 -1 -15 5 -15 6 0 11 5 11 12 0 6 3 9 6 5 10 -10
65 23 58 34 -3 6 3 13 14 16 20 5 20 6 3 46 -43 99 -68 150 -144 286 -166 300
-283 469 -361 523 -49 33 -49 33 -265 32 -219 -1 -325 -4 -711 -22 -208 -10
-315 -23 -353 -44 -16 -8 -25 -3 -49 24 -17 18 -25 25 -18 15 7 -9 10 -21 6
-25 -4 -4 -12 1 -17 11 -29 51 -136 90 -294 107 -175 19 -180 19 -165 10z
m1530 -103 l265 1 -268 -9 c-248 -9 -269 -9 -285 7 -16 17 -16 17 3 9 11 -5
139 -8 285 -8z m-305 -8 c13 -6 4 -7 -30 -3 -27 4 -52 8 -54 10 -9 8 65 2 84
-7z"/>
      <path d="M9328 4737 c-3 -19 -2 -25 4 -19 6 6 8 18 6 28 -3 14 -5 12 -10 -9z"/>
      <path d="M9334 4697 c-2 -7 7 -67 21 -132 36 -163 73 -417 81 -547 5 -81 10
-108 21 -108 10 0 12 13 8 58 -13 130 -37 322 -50 392 -37 202 -45 241 -56
282 -7 23 -12 49 -10 56 3 16 -8 16 -15 -1z"/>
      <path d="M5440 4079 c-14 -4 -42 -7 -63 -8 -21 -1 -59 -7 -85 -15 -26 -8 -94
-19 -152 -25 -58 -7 -130 -19 -160 -28 -55 -17 -55 -17 -10 -29 28 -7 91 -9
162 -6 87 4 121 2 133 -8 13 -11 14 -10 9 4 -6 16 11 17 239 14 135 -2 243 0
241 3 -2 4 8 7 21 7 36 0 41 -16 8 -23 -15 -3 -42 -10 -59 -15 -17 -6 -69 -15
-115 -21 -115 -14 -114 -23 1 -15 52 4 145 9 205 12 140 6 238 14 232 21 -3 2
-19 5 -36 5 -18 1 -34 5 -37 9 -2 5 -12 5 -22 2 -14 -5 -15 -3 -4 8 7 8 32 13
60 13 150 -1 203 -5 197 -14 -7 -11 8 -12 41 -2 17 6 20 11 14 28 -10 26 -61
40 -205 55 -172 19 -195 20 -195 9 0 -5 -9 -10 -20 -10 -11 0 -20 5 -20 10 0
6 -5 10 -11 10 -5 0 -7 -4 -4 -10 4 -6 -5 -10 -20 -10 -15 0 -24 4 -20 10 3 6
1 10 -4 10 -6 0 -11 -4 -11 -10 0 -5 -9 -10 -21 -10 -11 0 -17 5 -14 10 4 6
-11 10 -39 10 -24 0 -56 4 -70 10 -15 5 -26 6 -26 1 0 -5 14 -12 31 -16 23 -5
28 -10 20 -18 -9 -9 -16 -8 -30 0 -11 7 -43 15 -73 19 -29 4 -55 10 -58 14 -3
3 -16 3 -30 -1z m85 -49 c7 -12 -22 -12 -50 0 -17 7 -15 9 12 9 17 1 35 -3 38
-9z m405 -48 c0 -5 -7 -9 -15 -9 -8 0 -15 4 -15 9 0 4 7 8 15 8 8 0 15 -4 15
-8z"/>
      <path d="M9898 4068 c5 -13 28 -33 50 -46 33 -18 41 -20 36 -8 -4 10 -1 16 9
16 22 0 32 -20 16 -31 -11 -6 -10 -9 5 -15 10 -4 29 -18 42 -30 26 -27 52 -31
60 -9 8 20 -11 42 -60 68 -80 43 -120 56 -134 44 -11 -8 -13 -7 -10 8 1 10 -3
20 -9 22 -10 3 -11 -2 -5 -19z"/>
      <path d="M10406 3968 c-7 -38 -56 -153 -56 -132 0 7 -15 9 -45 4 -25 -4 -45
-3 -45 1 0 5 -14 16 -32 25 -17 9 -43 30 -58 46 -28 30 -28 30 -22 2 3 -19 1
-25 -7 -20 -6 4 -11 14 -11 22 0 14 -12 19 -22 8 -3 -3 9 -28 28 -56 19 -27
34 -53 34 -57 0 -3 -30 -19 -65 -35 -60 -27 -64 -30 -50 -46 8 -9 15 -21 15
-27 0 -12 179 -5 196 8 6 5 33 6 61 3 50 -6 50 -6 47 27 -4 34 -4 34 6 2 10
-32 32 -43 45 -23 4 6 11 8 16 5 5 -4 9 2 9 12 0 15 2 16 10 3 7 -11 10 -6 10
22 0 31 -3 35 -20 31 -12 -3 -20 -2 -19 3 4 22 -2 34 -16 34 -18 0 -20 42 -4
105 6 24 9 50 7 57 -3 7 -8 -4 -12 -24z m-193 -177 c-7 -9 -12 6 -17 49 -6 45
-6 45 8 0 7 -25 11 -47 9 -49z"/>
      <path d="M4360 3951 c0 -6 -15 -12 -32 -14 -29 -3 -28 -4 9 -5 34 -2 41 1 37
13 -7 17 -14 20 -14 6z"/>
      <path d="M5230 3940 c-95 -5 -95 -5 40 -13 74 -5 153 -7 175 -5 30 4 25 5 -22
6 -35 1 -63 6 -63 10 0 9 -1 9 -130 2z"/>
      <path d="M6235 3940 c-77 -4 -141 -8 -142 -9 -12 -6 1 -21 20 -22 12 0 16 -3
10 -6 -31 -12 -8 -23 46 -23 70 0 466 -34 646 -55 72 -8 204 -20 295 -25 91
-6 185 -12 210 -15 25 -2 77 -7 115 -9 70 -5 70 -5 10 14 -33 11 -87 20 -120
21 -36 1 -48 4 -30 7 21 3 -16 14 -125 37 -85 18 -171 38 -190 44 -87 29 -181
31 -272 6 -18 -5 -28 -3 -28 4 0 6 10 11 23 11 12 0 27 4 33 8 7 4 -35 8 -93
10 -69 2 -102 -1 -98 -8 10 -15 -12 -12 -29 5 -16 16 -33 16 -281 5z m63 -17
c-10 -2 -26 -2 -35 0 -10 3 -2 5 17 5 19 0 27 -2 18 -5z m614 -52 c-29 -8
-128 -1 -114 8 5 3 39 4 73 2 40 -3 55 -6 41 -10z"/>
      <path d="M9930 3940 c-20 -6 -21 -8 -5 -8 11 0 29 3 40 8 25 11 -1 11 -35 0z"/>
      <path d="M4000 3920 c-23 -7 -22 -8 10 -8 19 0 60 3 90 8 55 7 55 7 -10 8 -36
0 -76 -4 -90 -8z"/>
      <path d="M10578 3852 c-28 -16 -40 -44 -32 -67 7 -16 34 -28 34 -15 0 6 8 10
18 10 25 0 104 58 97 71 -4 5 -21 9 -39 7 -17 -1 -36 1 -42 4 -5 4 -21 -1 -36
-10z"/>
      <path d="M5250 3820 c20 -13 33 -13 25 0 -3 6 -14 10 -23 10 -15 0 -15 -2 -2
-10z"/>
      <path d="M5312 3803 c2 -9 10 -19 18 -21 12 -4 13 -3 3 10 -7 8 -10 18 -6 21
3 4 1 7 -6 7 -7 0 -11 -8 -9 -17z"/>
      <path d="M6828 3793 c12 -2 32 -2 45 0 12 2 2 4 -23 4 -25 0 -35 -2 -22 -4z"/>
      <path d="M6943 3783 c9 -2 23 -2 30 0 6 3 -1 5 -18 5 -16 0 -22 -2 -12 -5z"/>
      <path d="M9580 3771 c0 -8 -6 -11 -16 -7 -16 6 -35 -12 -120 -113 -24 -29 -25
-32 -5 -20 12 8 38 35 57 62 20 27 42 47 53 47 20 0 48 27 37 37 -3 3 -6 1 -6
-6z"/>
      <path d="M5375 3760 c11 -5 29 -8 40 -8 16 0 15 2 -5 8 -34 11 -60 11 -35 0z"/>
      <path d="M7398 3743 c12 -2 30 -2 40 0 9 3 -1 5 -23 4 -22 0 -30 -2 -17 -4z"/>
      <path d="M7508 3733 c12 -2 30 -2 40 0 9 3 -1 5 -23 4 -22 0 -30 -2 -17 -4z"/>
      <path d="M9987 3728 c-22 -8 -26 -13 -16 -24 6 -8 23 -14 38 -13 22 0 23 2 7
8 -17 7 -17 8 -2 24 19 19 14 20 -27 5z"/>
      <path d="M7608 3723 c12 -2 32 -2 45 0 12 2 2 4 -23 4 -25 0 -35 -2 -22 -4z"/>
      <path d="M7740 3720 c-55 -7 -55 -7 3 -8 32 -1 57 2 57 8 0 6 -1 9 -2 8 -2 -1
-28 -4 -58 -8z"/>
      <path d="M9720 3715 c0 -12 5 -15 22 -9 20 6 21 5 10 -9 -11 -13 -10 -15 7
-10 24 6 29 33 7 33 -8 0 -21 3 -30 6 -11 4 -16 1 -16 -11z"/>
      <path d="M7886 3711 c-8 -12 32 -31 64 -31 13 0 17 5 13 20 -6 24 -7 24 -33 8
-17 -11 -22 -10 -29 1 -6 9 -11 10 -15 2z"/>
      <path d="M12994 3706 c-3 -9 -12 -16 -20 -16 -8 0 -14 -4 -14 -9 0 -5 -9 -7
-20 -4 -12 3 -20 0 -20 -6 0 -7 -6 -11 -12 -9 -21 4 -68 -12 -68 -23 0 -6 -5
-7 -10 -4 -7 4 -8 -3 -4 -21 5 -19 4 -25 -5 -20 -6 4 -11 2 -11 -3 0 -19 28
-12 45 12 8 12 18 21 20 20 15 -8 35 -2 29 8 -5 8 1 10 20 7 14 -3 29 -1 32 3
3 5 10 9 15 9 6 0 7 -5 3 -12 -4 -7 -3 -8 4 -4 6 4 9 13 5 21 -3 10 2 15 16
15 18 0 21 -5 19 -26 -2 -21 2 -27 19 -29 18 -1 21 3 18 24 -1 14 -4 28 -5 31
-1 3 -3 14 -4 25 -1 25 -43 34 -52 11z"/>
      <path d="M12765 3704 c13 -5 7 -74 -7 -74 -5 0 -6 -4 -3 -10 3 -5 2 -10 -3
-10 -14 0 -23 28 -12 35 17 10 11 35 -7 35 -15 0 -16 2 -3 10 13 8 12 10 -3
10 -15 0 -18 -6 -14 -35 3 -19 1 -35 -4 -37 -16 -6 8 -29 32 -33 13 -1 32 -6
42 -10 19 -8 25 19 7 30 -8 5 -7 11 1 21 6 8 8 14 4 14 -4 0 -2 7 6 16 10 13
10 17 0 24 -11 6 -11 9 0 13 8 3 1 5 -16 5 -16 0 -25 -2 -20 -4z"/>
      <path d="M8513 3643 c9 -2 25 -2 35 0 9 3 1 5 -18 5 -19 0 -27 -2 -17 -5z"/>
      <path d="M8613 3633 c9 -2 23 -2 30 0 6 3 -1 5 -18 5 -16 0 -22 -2 -12 -5z"/>
      <path d="M12626 3632 c-11 -10 -6 -22 9 -22 8 0 15 5 15 11 0 5 6 7 13 3 6 -4
8 -3 4 1 -9 11 -34 15 -41 7z"/>
      <path d="M8793 3613 c9 -2 23 -2 30 0 6 3 -1 5 -18 5 -16 0 -22 -2 -12 -5z"/>
      <path d="M12976 3604 c-9 -24 -7 -31 5 -11 6 9 15 14 21 11 7 -4 8 -2 4 4 -10
17 -23 15 -30 -4z"/>
      <path d="M8868 3603 c12 -2 32 -2 45 0 12 2 2 4 -23 4 -25 0 -35 -2 -22 -4z"/>
      <path d="M12927 3595 c-21 -20 -21 -31 -3 -38 21 -8 40 18 28 38 -8 16 -10 16
-25 0z"/>
      <path d="M9005 3589 c144 -17 154 -20 158 -37 4 -16 5 -16 6 1 1 10 10 17 24
18 35 2 -174 28 -218 27 -26 0 -16 -3 30 -9z"/>
      <path d="M12874 3577 c-6 -7 -9 -18 -6 -25 6 -20 17 -13 18 13 1 14 1 25 0 25
0 -1 -6 -6 -12 -13z"/>
      <path d="M9373 3568 c-16 -21 -23 -48 -13 -48 6 0 10 8 10 18 0 10 5 23 12 30
7 7 9 12 6 12 -3 0 -10 -6 -15 -12z"/>
      <path d="M12942 3534 c-8 -9 -4 -13 16 -17 33 -6 33 -6 12 14 -13 12 -19 13
-28 3z"/>
      <path d="M5095 3510 c-3 -5 3 -10 15 -10 12 0 18 5 15 10 -3 6 -10 10 -15 10
-5 0 -12 -4 -15 -10z"/>
      <path d="M12980 3460 c-41 -3 -59 -9 -49 -13 25 -12 122 -4 127 11 2 6 0 11
-5 10 -4 -1 -37 -4 -73 -8z"/>
      <path d="M10843 3453 c3 -5 -18 -7 -46 -6 -45 1 -47 1 -17 -6 35 -7 35 -7 3
-15 -18 -4 -33 -14 -33 -21 0 -7 -3 -22 -6 -32 -6 -15 -4 -16 7 -5 7 6 21 12
31 12 10 0 18 4 18 9 0 5 10 13 22 17 12 3 26 11 32 16 6 5 20 15 31 23 19 14
18 14 -13 15 -18 0 -31 -3 -29 -7z"/>
      <path d="M12800 3450 c-23 -8 -81 -18 -215 -40 -30 -4 -58 -4 -69 2 -12 7 -16
7 -12 0 4 -6 -8 -9 -30 -7 -20 2 -48 -1 -63 -6 -14 -6 -46 -12 -70 -15 -24 -2
-49 -9 -57 -15 -8 -6 -14 -8 -14 -3 0 4 -5 3 -12 -4 -7 -7 -21 -12 -32 -12
-11 0 -28 -8 -38 -17 -23 -21 -38 -25 -106 -28 -66 -3 -81 -15 -19 -15 37 0
45 -3 41 -15 -9 -21 12 -19 87 10 35 14 77 28 93 31 16 2 37 9 48 15 10 5 24
7 30 3 6 -4 8 -3 5 3 -11 17 17 24 159 37 49 5 51 4 47 -18 -3 -13 2 -30 13
-40 16 -17 18 -16 40 7 12 13 43 29 69 36 25 6 49 19 52 27 4 12 14 14 36 10
23 -5 36 -1 52 14 12 12 26 20 31 19 25 -4 44 3 44 16 0 17 -65 19 -110 5z"/>
      <path d="M9305 3439 c-4 -5 14 -9 41 -9 55 0 55 5 2 13 -21 3 -40 1 -43 -4z"/>
      <path d="M10665 3435 c-5 -2 -22 -6 -37 -9 -18 -4 -28 -13 -28 -24 0 -14 2
-15 10 -2 8 12 10 12 16 -4 5 -13 9 -15 15 -5 4 7 27 21 51 30 40 17 41 18 13
18 -16 0 -34 -2 -40 -4z"/>
      <path d="M12155 3430 c-33 -4 -55 -7 -48 -8 7 -1 10 -8 7 -16 -3 -8 -12 -12
-20 -9 -10 4 -12 0 -8 -11 5 -14 11 -13 47 6 23 12 60 27 82 34 43 14 33 14
-60 4z"/>
      <path d="M9155 3420 c-30 -8 -30 -8 8 -9 23 -1 36 3 32 9 -3 6 -7 9 -8 9 -1
-1 -15 -5 -32 -9z"/>
      <path d="M12005 3420 c-60 -7 -60 -7 -5 -8 30 0 64 3 75 8 22 10 17 10 -70 0z"/>
      <path d="M11733 3393 c15 -2 37 -2 50 0 12 2 0 4 -28 4 -27 0 -38 -2 -22 -4z"/>
      <path d="M11965 3389 c-3 -4 17 -7 43 -7 35 1 46 -3 44 -13 -3 -11 -1 -11 8
-2 21 20 0 34 -46 32 -25 -2 -47 -6 -49 -10z"/>
      <path d="M11815 3380 c-3 -5 -28 -10 -54 -10 -29 0 -53 -6 -60 -14 -8 -10 -31
-13 -79 -11 -37 2 -75 -2 -86 -7 -14 -7 -17 -7 -11 2 6 9 -4 11 -36 7 -24 -2
-53 -8 -63 -12 -14 -6 -17 -5 -12 3 9 16 4 15 -30 -3 -16 -8 -38 -12 -50 -9
-12 3 -33 0 -46 -7 -12 -7 -31 -12 -42 -10 -10 1 -15 -2 -12 -7 4 -7 -4 -8
-21 -3 -27 7 -60 -3 -74 -23 -4 -5 -14 -6 -22 -3 -8 3 -19 1 -24 -4 -16 -16
-70 -28 -81 -17 -6 6 -8 -15 -6 -59 3 -47 1 -62 -5 -48 -5 11 -10 32 -10 46
-1 43 -24 64 -66 60 -24 -2 -41 2 -46 11 -7 10 -9 10 -9 1 0 -7 -10 -13 -22
-13 -19 0 -20 2 -8 10 10 7 11 10 2 10 -7 0 -15 -7 -18 -15 -5 -12 -10 -13
-20 -4 -11 9 -15 7 -20 -5 -6 -15 -8 -15 -21 4 -8 11 -20 20 -26 20 -8 0 -8
-3 1 -9 10 -6 8 -10 -8 -14 -12 -3 -24 -14 -27 -25 -5 -20 -45 -24 -73 -7 -9
6 -11 4 -5 -4 5 -9 -1 -12 -21 -10 -16 2 -35 0 -42 -5 -7 -4 -15 -1 -18 9 -4
9 -11 12 -18 7 -6 -4 -21 -7 -33 -6 -14 1 -24 -6 -28 -20 -6 -17 -8 -18 -12
-5 -2 11 -11 15 -24 12 -12 -3 -19 0 -19 8 0 22 -22 -6 -36 -47 -7 -20 -15
-58 -19 -85 -8 -54 -2 -59 52 -38 23 8 30 7 40 -7 12 -17 13 -17 13 0 0 13 5
17 20 13 10 -3 21 0 24 7 3 8 7 7 14 -3 6 -8 11 -9 13 -3 2 6 24 13 49 16 25
4 66 11 93 17 26 6 87 9 135 6 87 -5 175 12 194 38 12 15 9 -44 -2 -65 -10
-19 -70 -26 -70 -9 0 5 -7 6 -15 3 -8 -4 -12 -11 -8 -17 3 -5 1 -7 -5 -3 -6 3
-13 2 -16 -3 -8 -12 -58 -20 -151 -22 -50 -1 -88 -7 -103 -17 -16 -11 -26 -12
-35 -3 -8 6 -17 8 -21 4 -4 -4 -44 -8 -89 -9 -45 -1 -90 -5 -99 -8 -14 -6 -25
-9 -58 -15 -3 -1 2 -5 9 -10 12 -8 9 -11 -11 -16 -29 -7 -52 1 -43 15 3 4 -4
6 -15 3 -11 -3 -23 -9 -26 -14 -3 -5 -16 -9 -29 -9 -13 0 -27 -5 -30 -10 -4
-7 -13 -7 -26 0 -13 8 -25 7 -40 0 -11 -7 -32 -9 -46 -5 -15 3 -22 2 -19 -4 4
-5 -2 -9 -11 -9 -10 1 -33 -2 -50 -6 -25 -6 -33 -4 -33 6 -1 9 -4 9 -13 -3 -7
-9 -28 -19 -47 -22 -19 -3 -44 -7 -55 -9 -11 -2 -23 -7 -27 -13 -5 -6 -8 -5
-8 3 0 7 -5 10 -10 7 -6 -4 -8 -10 -6 -14 3 -4 0 -8 -7 -9 -25 -4 -62 -10 -62
-12 0 -1 -15 -3 -34 -6 -19 -2 -42 -11 -51 -19 -9 -8 -24 -15 -32 -15 -9 0
-18 -4 -20 -10 -1 -5 -13 -7 -25 -4 -17 5 -23 14 -23 35 0 26 2 28 30 23 18
-4 39 -1 52 8 13 7 39 15 58 16 19 2 48 12 63 24 16 11 37 18 47 15 10 -2 30
3 45 13 16 10 34 16 42 13 7 -3 21 1 31 9 9 8 37 21 62 27 149 40 198 51 225
51 41 0 108 20 117 34 17 25 7 36 -32 36 -22 0 -40 4 -40 10 0 12 45 24 69 17
14 -3 21 2 25 17 8 31 8 34 -11 39 -17 4 -17 5 0 6 9 0 17 6 17 11 0 12 -2 12
-57 1 -48 -9 -56 -6 -43 19 9 18 10 17 -47 11 -6 0 -25 -15 -42 -32 -28 -27
-33 -29 -46 -15 -18 18 -106 16 -129 -3 -9 -8 -16 -10 -16 -6 0 4 -6 3 -12 -3
-18 -14 -74 -10 -71 5 2 7 -4 10 -12 6 -12 -4 -13 -9 -4 -19 9 -11 8 -14 -5
-14 -9 0 -16 -4 -16 -10 0 -5 -9 -10 -19 -10 -11 0 -23 -5 -27 -11 -4 -7 -22
-9 -45 -6 -40 5 -77 -12 -65 -31 7 -12 -44 -9 -63 2 -5 4 -19 -4 -31 -16 -13
-14 -23 -19 -28 -12 -11 17 -42 25 -42 11 0 -8 -3 -8 -9 1 -6 10 -10 7 -15
-13 -5 -18 -12 -25 -22 -21 -8 3 -23 -3 -34 -14 -18 -18 -20 -18 -20 -2 0 14
-2 15 -10 2 -5 -8 -12 -11 -16 -8 -4 4 -15 3 -25 -2 -12 -7 -19 -6 -22 3 -3 6
-6 3 -6 -8 -1 -15 -8 -20 -28 -20 -16 -1 -31 4 -35 9 -4 6 -17 3 -32 -7 -14
-9 -27 -13 -30 -9 -7 11 -64 4 -95 -11 -19 -9 -25 -9 -28 1 -6 17 -30 15 -37
-3 -3 -8 -10 -15 -16 -15 -6 0 -18 -6 -26 -14 -8 -8 -26 -13 -42 -11 -15 1
-32 -2 -39 -7 -7 -5 -22 -6 -35 -2 -13 4 -31 7 -40 5 -11 -1 -23 8 -30 24 -16
35 -40 39 -128 19 -41 -10 -88 -18 -105 -18 -16 -1 -34 -4 -40 -8 -16 -9 -65
-6 -65 4 0 6 -11 3 -25 -6 -13 -9 -32 -16 -42 -16 -15 0 -16 -2 -3 -10 18 -11
10 -20 -21 -23 -13 -2 -34 -8 -45 -14 -12 -7 -24 -10 -27 -7 -13 13 -235 16
-292 4 -33 -7 -70 -14 -83 -14 -13 -1 -27 -8 -32 -16 -7 -11 -12 -12 -20 -4
-7 7 -24 9 -43 5 -32 -7 -32 -7 -29 -86 2 -44 7 -81 11 -83 14 -5 -10 -82 -25
-82 -8 0 -14 -3 -14 -7 0 -15 -53 -34 -61 -22 -3 6 -8 2 -12 -10 -3 -15 -13
-21 -31 -21 -14 0 -26 -4 -26 -9 0 -10 -76 -39 -130 -50 -26 -5 -38 -3 -48 9
-8 8 -10 9 -7 2 4 -8 -1 -19 -11 -26 -19 -14 -65 -7 -112 16 -29 15 -133 14
-161 -1 -21 -12 -27 -5 -13 14 7 10 37 26 77 41 32 12 98 15 105 5 11 -18 99
-22 137 -6 20 8 33 18 30 22 -4 3 -13 1 -21 -6 -11 -9 -15 -8 -20 4 -4 12 -12
14 -28 9 -13 -4 -52 -6 -88 -5 -60 2 -135 -7 -235 -27 -22 -5 -55 -4 -74 1
-23 6 -56 5 -95 -3 -86 -17 -246 -11 -287 10 -9 5 -19 6 -23 3 -3 -3 -6 1 -6
11 0 9 -11 21 -24 26 -13 5 -26 12 -27 17 -2 4 -17 19 -33 33 -29 25 -29 25
-8 -11 12 -20 22 -46 22 -58 0 -11 4 -21 9 -21 5 0 12 -15 15 -33 10 -53 62
-577 86 -862 5 -71 13 -158 16 -191 7 -75 7 -75 -131 -85 -88 -6 -84 -6 30 -2
157 5 188 8 201 16 6 3 26 9 45 12 37 6 96 23 118 34 23 11 25 31 3 31 -23 0
-72 56 -73 84 -3 48 -8 136 -13 204 -5 68 -4 73 17 82 26 12 384 90 410 90 16
0 17 -8 12 -92 -3 -51 -8 -116 -10 -145 -4 -36 -1 -53 8 -56 9 -3 9 -8 -2 -21
-12 -14 -12 -16 3 -10 11 4 15 2 11 -7 -7 -21 21 -53 40 -45 9 3 14 2 11 -3
-3 -5 1 -11 9 -15 12 -4 15 4 15 43 0 26 2 75 4 107 3 47 2 51 -4 19 -5 -31
-7 -34 -8 -13 -2 21 -6 26 -19 21 -15 -5 -16 -3 -5 8 6 7 12 23 12 36 0 13 4
23 9 23 5 0 9 16 8 35 -1 19 -4 35 -8 35 -4 0 -10 11 -13 25 -4 14 -11 25 -16
25 -6 0 -10 4 -10 10 0 5 6 7 14 4 13 -5 33 30 28 49 -1 5 2 6 8 2 5 -3 13 2
17 12 4 10 12 24 19 30 7 7 10 22 7 33 -4 15 0 20 14 20 24 0 43 18 43 41 0
10 9 21 21 24 11 4 25 16 31 28 5 12 41 47 78 77 64 52 103 98 98 117 -1 4 2
23 6 41 6 23 12 32 22 28 8 -3 13 -2 10 3 -3 5 1 12 10 15 22 8 26 8 19 -4 -3
-5 -3 -21 1 -35 5 -19 12 -25 28 -23 18 3 21 9 18 46 -1 23 2 42 8 42 5 0 10
5 10 10 0 14 -46 3 -88 -21 -40 -23 -48 -23 -56 -4 -7 20 88 65 140 66 21 0
48 4 59 9 18 8 18 9 -6 9 -14 1 -34 10 -43 20 -17 19 -16 20 35 35 29 9 57 16
63 16 6 0 23 6 37 14 43 22 71 26 236 27 143 1 164 -1 187 -17 14 -11 26 -25
26 -31 0 -16 -1 -16 91 2 69 13 93 20 154 46 50 21 114 38 153 41 23 2 42 6
42 9 0 4 28 12 63 19 34 6 89 20 122 30 33 11 71 20 84 22 36 4 38 27 3 26
-32 -1 -52 8 -52 23 0 6 4 8 9 5 13 -8 101 31 101 45 0 8 4 8 15 -1 8 -7 27
-10 42 -7 15 3 37 1 50 -4 26 -10 123 9 123 23 0 5 5 6 12 2 6 -4 17 1 25 11
12 18 13 17 13 -8 0 -31 -5 -33 -70 -41 -25 -2 -67 -10 -95 -16 -27 -7 -63
-14 -78 -16 -33 -4 -47 -12 -47 -25 0 -14 40 -11 125 11 43 11 87 18 97 15 9
-4 27 -1 39 5 17 10 23 9 30 -1 24 -38 -6 -511 -37 -573 -17 -34 -17 -39 -5
-31 6 3 15 -3 21 -14 12 -24 13 -24 -80 -46 -122 -30 -358 -96 -324 -91 18 3
44 8 59 12 20 5 26 3 23 -6 -2 -7 -15 -15 -29 -17 -13 -2 -53 -12 -89 -22 -94
-28 -145 -36 -136 -22 4 6 15 11 24 11 16 0 124 39 111 40 -4 0 -62 -14 -130
-31 -68 -17 -141 -32 -161 -33 -44 -1 -52 -15 -10 -17 23 -2 24 -2 5 -6 -28
-5 -31 -39 -4 -39 11 0 19 3 18 6 -1 3 2 6 7 7 5 1 12 6 15 11 3 6 27 12 52
15 39 4 46 2 45 -12 -1 -19 -16 -32 -29 -24 -5 3 -3 9 4 14 10 6 8 9 -8 9 -13
0 -32 -9 -42 -19 -10 -10 -29 -22 -41 -26 -11 -4 -19 -12 -17 -18 6 -18 -12
-47 -28 -47 -8 0 -15 -4 -15 -10 0 -12 13 -13 26 -2 13 12 128 52 145 51 8 0
0 -6 -17 -12 -17 -7 -39 -20 -49 -30 -10 -10 -26 -16 -37 -14 -10 3 -16 1 -12
-4 3 -5 1 -9 -3 -9 -5 0 -18 -7 -29 -16 -16 -13 -17 -15 -1 -10 14 5 16 1 11
-22 -5 -27 -5 -27 13 -7 10 11 27 19 40 17 12 -2 30 1 40 7 16 9 14 10 -9 11
-15 0 -30 5 -33 10 -4 6 10 10 34 10 33 0 39 -3 34 -17 -5 -14 -1 -15 33 -10
36 6 37 5 20 -8 -11 -8 -16 -15 -10 -15 5 0 2 -5 -6 -10 -20 -13 -63 -13 -55
0 3 6 -1 10 -9 10 -9 0 -16 -7 -16 -15 0 -9 -9 -15 -23 -15 -13 0 -28 -5 -34
-11 -7 -7 -16 -5 -29 8 -17 17 -18 17 -11 0 4 -11 4 -24 0 -30 -4 -7 -10 -2
-14 13 -6 21 -7 18 -8 -15 0 -29 2 -36 9 -25 5 8 10 10 10 4 0 -5 10 -15 23
-20 12 -6 16 -9 10 -7 -7 1 -14 -4 -14 -12 -1 -8 -3 -19 -4 -25 -1 -5 -3 -13
-4 -17 -1 -5 -8 1 -16 11 -13 17 -15 17 -21 3 -8 -21 3 -38 20 -31 8 3 17 0
21 -7 6 -8 1 -11 -18 -7 -23 4 -26 1 -32 -38 -3 -24 -11 -47 -17 -50 -8 -5 -9
-1 -4 12 4 10 10 75 13 144 6 139 -13 301 -48 418 -41 130 -114 250 -147 237
-8 -3 -10 0 -6 7 5 8 2 9 -10 5 -10 -4 -15 -3 -11 3 9 14 -62 25 -151 23 -90
-2 -412 -68 -432 -88 -3 -2 19 -28 49 -57 87 -85 156 -240 190 -428 21 -115
18 -449 -5 -575 -35 -193 -96 -367 -169 -490 -51 -85 -53 -90 -36 -80 8 5 11
4 6 -1 -5 -5 -12 -9 -15 -9 -4 0 -32 -27 -62 -60 -54 -60 -54 -60 4 -5 48 44
54 48 33 19 -15 -20 -27 -41 -27 -47 0 -7 -4 -12 -10 -12 -5 0 -10 -5 -10 -11
0 -33 -128 -117 -173 -114 -12 1 -24 -1 -27 -5 -10 -14 -151 11 -205 36 -30
14 -74 47 -99 74 -42 45 -115 174 -130 230 -4 14 10 -8 30 -48 20 -40 55 -93
78 -119 42 -48 111 -103 129 -103 6 0 -9 13 -34 28 -82 53 -159 163 -199 286
-7 21 -15 34 -19 28 -3 -6 -20 -16 -36 -21 -30 -11 -30 -11 -2 10 15 11 25 25
21 30 -3 5 2 9 10 9 8 0 18 5 22 12 4 7 3 8 -4 4 -7 -4 -12 -1 -12 6 0 19 63
83 68 69 3 -8 9 -6 18 6 13 17 13 17 14 0 0 -36 70 -153 70 -118 0 6 19 11 41
11 35 0 40 2 29 15 -7 8 -27 17 -46 21 -41 8 -54 23 -25 31 19 5 19 7 6 26 -8
12 -11 25 -6 31 4 6 6 28 3 49 -4 37 -4 37 -32 -6 -15 -24 -35 -43 -46 -44
-10 -1 -29 -4 -41 -8 -17 -5 -23 -3 -23 8 0 14 -29 19 -40 6 -12 -12 -102 -40
-115 -35 -8 3 -18 -1 -22 -9 -5 -7 -22 -16 -38 -19 -17 -2 -32 -5 -35 -6 -3
-1 -9 -2 -14 -1 -4 1 -14 -3 -21 -9 -8 -6 -27 -12 -44 -12 -17 -1 -31 -5 -31
-11 0 -5 -9 -7 -19 -4 -11 2 -32 -4 -48 -14 -15 -10 -33 -19 -40 -19 -7 0 -24
-12 -39 -26 -21 -22 -28 -24 -35 -13 -7 11 -13 9 -33 -11 -52 -54 -92 -87
-114 -94 -12 -3 -31 -9 -42 -12 -27 -7 -27 22 0 38 32 20 24 28 -30 28 -36 0
-50 -4 -50 -14 0 -8 6 -17 13 -19 8 -4 8 -6 -2 -6 -8 -1 -22 -8 -32 -17 -15
-14 -18 -12 -28 16 -9 28 -8 33 9 37 11 3 17 9 14 14 -3 5 -13 5 -24 -1 -10
-5 -23 -10 -28 -10 -11 0 -36 58 -33 77 1 7 -8 17 -19 23 -27 14 -26 33 1 25
16 -5 20 -3 17 10 -1 10 -10 21 -18 25 -8 4 -27 13 -42 21 -36 16 -38 49 -4
49 14 0 28 5 32 11 3 6 19 9 35 7 22 -4 29 -1 29 13 0 9 -7 22 -16 30 -10 8
-13 21 -9 38 5 24 4 25 -9 7 -14 -17 -16 -17 -35 15 -23 38 -16 52 32 63 26 6
27 5 17 -14 -8 -16 -17 -19 -33 -14 -19 6 -20 5 -9 -9 7 -8 21 -13 32 -10 19
5 25 -5 21 -31 -1 -4 4 -15 11 -23 10 -13 13 -12 19 6 5 11 4 34 -1 51 -8 27
-6 32 15 40 13 5 37 9 52 8 89 -3 319 13 383 26 117 24 620 170 620 180 0 4
-10 5 -22 2 -13 -3 -63 -18 -113 -32 -49 -14 -184 -50 -300 -81 -210 -55 -210
-55 -410 -56 -309 -1 -342 1 -387 24 -21 11 -78 31 -124 45 -47 13 -93 31
-101 39 -8 8 -19 15 -25 15 -6 0 -8 13 -6 31 5 30 4 31 -31 26 -20 -2 -63 1
-96 9 -33 7 -88 15 -121 17 -34 2 -66 7 -72 11 -6 3 -17 3 -26 0 -9 -3 -22 -1
-29 5 -8 6 -22 9 -33 7 -10 -2 -44 0 -74 5 -158 26 -286 41 -337 41 -24 0 -43
4 -43 9 0 5 -15 9 -32 8 -18 -1 -68 3 -110 8 -43 5 -78 5 -78 1 0 -4 -8 -8
-17 -8 -16 0 -16 2 -3 10 11 8 -4 9 -50 5 -46 -4 -59 -2 -45 4 14 7 -9 9 -75
6 -61 -3 -88 -1 -75 5 20 9 12 9 -160 11 -27 0 -70 0 -95 0 -25 0 -46 4 -48 9
-2 5 -26 6 -53 3 -27 -3 -49 -2 -49 3 0 5 -35 9 -77 9 -80 0 -238 12 -283 20
-40 8 -169 16 -253 15 -51 -1 -76 3 -72 9 4 7 -20 10 -68 9 -41 -1 -80 2 -87
7 -9 5 -11 4 -6 -3 4 -7 2 -12 -3 -12 -6 0 -11 5 -11 11 0 7 -35 9 -110 5 -61
-2 -108 -2 -106 2 2 4 -11 7 -29 8 -19 0 -32 -3 -29 -7 2 -4 -8 -3 -23 2 -16
5 -235 43 -488 84 -253 42 -518 87 -590 100 -71 13 -173 25 -225 27 -52 1 -98
6 -101 11 -4 5 -76 10 -160 10 -93 0 -140 4 -119 8 22 5 4 6 -45 4 -55 -3 -72
-2 -55 5 17 6 -1 7 -53 3 -59 -4 -77 -3 -77 7 0 10 -15 11 -65 6 -40 -4 -65
-3 -65 3 0 5 -15 11 -32 13 -24 2 -33 8 -32 21 1 9 -4 17 -12 17 -8 0 -14 -7
-14 -15 0 -8 -1 -15 -3 -15 -2 0 -28 -4 -58 -9 -30 -6 -74 -12 -99 -15 -25 -3
-60 -10 -79 -16 -19 -5 -66 -12 -105 -16 -107 -9 -407 -10 -413 -1 -2 4 -9 5
-14 2 -5 -4 -5 -11 1 -18 5 -7 21 -26 35 -44 15 -18 32 -30 40 -27 8 3 22 1
31 -4 10 -6 29 -6 47 -1 20 6 40 4 64 -6 19 -8 39 -12 44 -9 5 3 4 -7 -1 -21
-6 -15 -8 -31 -4 -36 3 -5 -2 -9 -10 -9 -9 0 -16 -4 -16 -10 0 -5 -9 -10 -19
-10 -10 0 -21 -7 -25 -15 -11 -31 -26 -14 -22 26 4 48 -2 79 -16 79 -6 0 -8
-9 -5 -20 3 -11 -3 -29 -14 -41 -10 -12 -19 -26 -19 -30 0 -5 -6 -6 -14 -3
-21 8 -15 -95 7 -129 9 -14 17 -30 17 -35 0 -24 54 -112 68 -112 12 0 14 -3 5
-8 -23 -15 45 -99 99 -122 61 -26 122 -26 360 4 106 13 238 27 293 31 55 3
124 8 152 11 29 3 70 3 91 -1 37 -6 39 -9 82 -103 103 -224 245 -371 407 -422
34 -10 81 -28 105 -39 24 -10 66 -22 93 -26 28 -4 57 -9 65 -10 140 -24 201
-28 296 -16 54 8 128 17 164 21 71 8 213 56 257 88 45 32 125 62 168 64 22 1
65 -4 95 -10 110 -22 305 -47 660 -83 180 -19 220 -20 330 -10 109 10 131 9
175 -5 28 -9 102 -20 165 -25 344 -26 406 -33 745 -83 172 -26 295 -36 825
-67 205 -12 360 -24 447 -34 38 -5 86 -3 121 4 61 12 92 8 92 -13 0 -6 24 -36
53 -67 28 -31 68 -78 87 -104 25 -35 50 -55 90 -73 30 -13 80 -37 110 -52 30
-16 102 -45 160 -65 105 -37 105 -37 290 -39 218 -1 261 8 368 82 97 66 208
206 311 394 23 41 41 84 41 96 0 25 28 35 86 30 35 -3 42 1 67 35 15 20 31 37
37 37 5 0 33 11 62 24 47 21 189 81 437 185 40 17 91 34 113 38 22 3 59 21 83
38 30 24 81 44 181 74 77 22 180 53 229 69 99 32 208 66 270 83 22 7 54 17 70
24 17 7 57 18 90 25 33 7 75 21 95 31 19 11 54 19 78 19 24 0 41 4 38 9 -8 13
158 66 386 124 25 7 50 15 54 20 4 4 20 7 36 7 15 0 36 4 46 9 52 28 99 43
148 48 30 3 54 10 54 14 0 12 71 11 90 -1 8 -5 11 -10 6 -10 -5 0 -1 -9 8 -19
10 -11 31 -46 46 -78 16 -32 38 -68 49 -81 35 -40 138 -80 241 -92 181 -23
231 -23 348 -4 113 18 113 18 175 89 67 75 97 117 97 136 0 6 8 23 19 37 28
42 96 264 119 392 26 146 42 253 42 285 0 24 -1 25 -32 12 -29 -12 -31 -16
-34 -72 -4 -74 -21 -180 -41 -260 -8 -33 -19 -85 -23 -115 -9 -61 -75 -246
-95 -267 -20 -19 -120 -17 -153 4 -29 19 -72 63 -72 76 0 4 -9 26 -19 50 -35
76 -67 318 -41 302 6 -4 10 8 10 29 0 40 -13 45 -48 20 -15 -10 -22 -11 -22
-3 0 6 -8 9 -20 6 -13 -3 -20 0 -20 9 0 8 -5 14 -11 14 -16 0 0 20 35 41 17
10 26 19 19 19 -13 0 -73 -48 -72 -58 1 -4 1 -14 0 -22 -1 -12 -4 -11 -12 3
-13 23 9 60 49 81 34 18 150 48 160 42 4 -2 16 2 27 10 10 8 13 14 7 14 -21 0
-13 20 13 32 14 6 25 15 25 20 0 5 -13 2 -29 -6 -36 -19 -41 -14 -29 32 5 20
9 50 9 65 -1 19 2 26 10 21 7 -4 10 -1 7 7 -3 8 -10 15 -16 15 -7 1 -19 2 -27
3 -16 1 -20 31 -6 46 10 12 52 135 45 135 -3 0 -12 -17 -21 -37 -11 -26 -18
-32 -20 -21 -5 21 51 136 89 182 24 30 44 40 116 62 48 14 128 38 177 54 261
82 407 120 425 110 26 -14 35 -84 21 -165 -21 -118 -98 -321 -161 -422 -15
-24 -9 -40 11 -28 27 17 124 267 154 397 18 80 21 187 6 216 -10 18 -19 20
-78 19 -37 -1 -58 -4 -47 -6 11 -2 -7 -11 -46 -22 -36 -10 -159 -47 -275 -82
-250 -76 -269 -81 -260 -67 3 5 -2 10 -11 10 -10 0 -14 -3 -11 -7 4 -4 -4 -18
-17 -32 -30 -32 -93 -152 -131 -248 -16 -43 -34 -73 -42 -73 -9 0 -11 -5 -7
-12 6 -10 4 -10 -8 0 -10 8 -19 9 -22 3 -4 -5 -23 -8 -44 -5 -20 2 -30 1 -22
-2 8 -4 18 -12 22 -19 4 -7 20 -11 35 -9 28 4 28 4 -2 -6 -17 -5 -32 -6 -35 0
-3 4 -17 11 -32 15 -15 4 -32 13 -39 21 -6 8 -22 14 -35 14 -16 0 -22 4 -18
15 6 15 -35 31 -58 22 -7 -3 -1 -6 15 -6 30 -1 38 -21 8 -21 -11 0 -22 -4 -25
-8 -3 -4 5 -8 18 -8 28 1 96 -25 96 -36 0 -4 -9 -8 -20 -8 -11 0 -20 5 -20 10
0 6 -5 10 -11 10 -5 0 -7 -4 -4 -10 8 -13 -31 -13 -97 1 -47 10 -88 29 -62 29
5 0 10 9 10 20 0 25 -24 25 -56 0 -25 -20 -25 -20 5 -20 53 -1 5 -20 -55 -22
-54 -1 -54 -2 -10 -5 27 -3 48 -11 54 -20 8 -15 43 -13 101 4 17 5 18 4 6 -11
-9 -10 -30 -16 -60 -17 -25 -1 -38 -3 -28 -6 49 -13 -24 -39 -94 -34 -32 2
-39 -2 -55 -28 -18 -31 -41 -43 -31 -17 6 16 -59 26 -140 20 -31 -2 -53 1 -53
6 0 6 10 10 23 11 21 0 21 1 2 8 -11 5 -29 5 -40 1 -11 -4 -47 -8 -80 -9 -32
-1 -62 -6 -65 -11 -3 -5 -75 -12 -160 -15 -85 -3 -167 -6 -183 -7 -28 -1 -45
7 -35 18 3 3 29 5 57 6 28 0 54 4 57 9 3 5 10 7 15 4 5 -4 9 -1 9 5 0 10 -18
9 -102 -6 -14 -3 -29 -1 -32 4 -3 4 -29 9 -58 9 -36 0 -41 -1 -16 -4 20 -2 42
-10 48 -18 9 -11 6 -13 -12 -11 -13 2 -33 -1 -43 -5 -17 -6 -16 -8 8 -8 29 -1
38 -20 10 -22 -10 -1 -30 -3 -45 -5 -15 -1 -30 1 -33 7 -4 5 -27 9 -53 9 -47
0 -47 0 -12 -30 28 -23 31 -30 18 -35 -9 -4 -33 -2 -53 4 -27 7 -35 7 -32 -2
2 -7 22 -13 46 -15 23 -2 39 -7 36 -13 -10 -15 -77 -10 -97 8 -14 13 -18 13
-18 2 0 -11 -2 -11 -10 1 -8 13 -10 12 -10 -5 0 -15 -3 -16 -12 -7 -7 7 -20
12 -29 12 -22 0 -32 27 -14 38 8 4 -10 6 -43 5 -31 -1 -73 0 -92 4 -29 5 -32
7 -15 14 19 7 19 8 -2 8 -13 1 -23 -2 -23 -6 0 -5 -20 -9 -45 -11 -25 -1 -45
1 -45 5 0 5 7 76 15 158 9 83 15 210 14 283 -1 73 1 135 4 139 4 3 37 7 73 9
36 2 80 6 96 10 20 4 28 3 24 -4 -4 -6 2 -8 14 -5 11 3 23 10 27 16 4 7 0 8
-13 3 -15 -6 -15 -3 5 18 13 14 28 23 32 20 5 -2 25 6 46 20 41 26 116 41 157
30 22 -5 24 -8 10 -21 -8 -8 -43 -21 -77 -28 -95 -20 -150 -36 -144 -42 3 -3
21 0 39 6 40 13 244 48 335 57 34 4 61 10 58 14 -2 4 7 5 20 2 15 -2 25 0 25
7 0 6 8 11 18 11 15 0 15 -2 2 -11 -12 -8 -11 -9 5 -5 11 3 38 8 60 12 32 6
36 9 20 15 -16 6 -17 8 -3 8 9 1 19 -3 22 -8 9 -15 278 37 289 56 4 7 22 12
40 12 32 -1 32 -1 2 -10 -22 -6 -15 -7 25 -3 30 3 57 9 60 13 3 5 32 14 65 21
87 17 95 20 95 35 0 9 6 12 15 9 10 -4 15 0 16 12 0 15 2 14 10 -5 6 -15 14
-21 25 -17 9 3 20 6 25 6 6 0 8 4 5 8 -2 4 12 9 32 10 20 1 62 7 92 12 30 5
92 12 137 15 61 5 80 10 77 20 -7 18 3 23 71 30 33 4 80 14 105 21 62 19 70
18 70 -10 0 -19 5 -23 25 -21 36 4 95 25 95 35 0 4 14 10 31 14 25 5 30 10 26
26 -3 11 -1 20 3 20 5 0 6 16 3 36 -4 25 -2 39 8 45 21 13 29 11 29 -8 0 -15
2 -15 9 -4 5 8 7 20 4 28 -3 7 1 13 8 13 7 0 10 2 7 5 -3 3 -21 -3 -40 -15
-20 -11 -43 -18 -52 -14 -9 3 -23 3 -31 0 -22 -8 -1 -48 23 -44 18 3 24 -20 9
-39 -6 -9 -6 -13 1 -13 6 0 9 -6 6 -13 -6 -16 -70 -21 -79 -7 -11 18 5 32 21
19 9 -7 14 -8 14 -1 0 6 -9 14 -20 17 -11 3 -20 10 -20 15 0 5 -7 7 -15 4 -8
-4 -15 -12 -15 -20 0 -8 -7 -14 -16 -14 -8 0 -12 4 -9 10 7 12 -47 -7 -55 -19
-8 -13 -60 -22 -60 -11 0 5 5 10 12 10 6 0 8 3 4 7 -4 4 -15 -3 -25 -15 -11
-15 -30 -24 -56 -27 -22 -2 -59 -6 -82 -9 -25 -3 -43 -2 -43 4 0 5 -6 7 -12 5
-7 -3 -26 -7 -43 -9 -16 -2 -45 -7 -62 -11 -21 -5 -38 -3 -48 5 -12 10 -15 10
-15 -3 0 -9 -8 -15 -19 -14 -11 0 -17 5 -14 11 10 16 -50 -4 -64 -22 -7 -9
-13 -14 -13 -11 0 4 -16 3 -35 -1 -32 -7 -35 -6 -35 16 0 27 19 39 75 48 46 8
104 22 155 39 19 6 82 11 140 12 77 0 113 4 137 16 22 12 51 16 100 14 73 -3
104 10 117 51 8 25 81 75 93 64 4 -4 18 -4 31 1 30 11 27 54 -3 54 -11 0 -25
3 -32 8 -6 4 -14 3 -18 -3z m-555 -157 c-1 -38 -1 -38 -15 -13 -19 33 -19 50
0 50 11 0 15 -11 15 -37z m-360 -13 c-13 -8 -13 -10 1 -10 19 0 33 -42 24 -71
-7 -20 -25 -26 -25 -9 0 6 -11 16 -25 22 -14 6 -25 17 -25 25 0 17 36 53 53
53 8 0 7 -4 -3 -10z m-470 -126 c0 -23 -1 -24 -16 -10 -8 9 -21 16 -27 16 -16
0 14 20 31 20 6 0 12 -12 12 -26z m10 -179 c0 -8 -4 -15 -10 -15 -5 0 -10 7
-10 15 0 8 5 15 10 15 6 0 10 -7 10 -15z m-934 -34 c-3 -5 -22 -12 -41 -15
-20 -4 -33 -11 -30 -17 4 -5 1 -9 -4 -9 -6 0 -11 4 -11 9 0 5 -10 7 -22 4 -16
-4 -20 -2 -13 5 6 6 33 15 60 20 68 13 67 13 61 3z m-856 -35 c0 -17 -14 -29
-23 -20 -8 8 3 34 14 34 5 0 9 -6 9 -14z m-638 -58 c10 -12 18 -36 18 -54 0
-27 3 -31 20 -27 16 4 18 9 9 19 -6 7 -8 18 -4 24 3 5 -1 13 -9 16 -18 7 -22
34 -6 34 6 0 10 -6 10 -12 0 -10 3 -9 9 1 7 11 12 8 26 -13 9 -14 18 -37 19
-51 0 -14 4 -25 9 -25 4 0 7 -5 7 -11 0 -5 -4 -8 -9 -4 -5 3 -12 1 -16 -4 -6
-11 -45 -10 -45 1 0 4 -8 8 -17 8 -14 0 -15 -2 -5 -9 11 -7 11 -9 -2 -14 -9
-4 -16 -2 -16 2 0 5 -16 4 -35 -2 -32 -9 -67 0 -37 10 6 3 12 9 12 14 0 4 -6
6 -14 3 -9 -4 -16 6 -20 31 -8 43 0 75 19 75 9 0 12 6 9 15 -5 13 -2 14 22 5
15 -6 36 -20 46 -32z m1062 -27 c3 -5 -1 -15 -10 -22 -14 -12 -14 -14 3 -21
13 -6 11 -7 -9 -3 -31 6 -65 -4 -48 -15 6 -4 -3 -7 -19 -7 -27 0 -29 2 -13 14
9 8 11 11 3 7 -8 -4 -30 -9 -50 -11 -19 -2 -40 -8 -47 -14 -7 -5 -16 -9 -20
-8 -21 4 -28 -2 -14 -12 11 -7 7 -9 -17 -5 -21 3 -33 -1 -37 -10 -4 -9 -15
-12 -38 -8 -26 5 -30 3 -18 -6 12 -9 9 -10 -14 -5 -26 5 -56 26 -56 38 0 3 16
8 36 12 20 3 44 10 53 14 27 14 123 41 180 51 30 6 57 12 59 15 9 9 71 5 76
-4z m46 -1 c0 -5 -7 -10 -16 -10 -8 0 -12 5 -9 10 3 6 10 10 16 10 5 0 9 -4 9
-10z m-460 -15 c0 -8 -4 -15 -10 -15 -5 0 -10 7 -10 15 0 8 5 15 10 15 6 0 10
-7 10 -15z m-343 -72 c2 -6 -3 -13 -12 -16 -10 -5 -15 0 -15 14 0 21 21 22 27
2z m313 -22 c0 -13 -99 -40 -106 -29 -8 13 14 28 43 28 12 0 24 4 28 10 6 10
35 3 35 -9z m-1517 -223 c-62 -20 -220 -32 -228 -17 -4 5 -15 9 -26 9 -10 0
-19 4 -19 8 0 4 54 7 120 5 97 -2 122 0 135 13 10 10 15 11 15 3 0 -8 7 -7 23
4 15 10 24 11 29 4 4 -8 -13 -18 -49 -29z m249 -49 c24 -1 50 -8 59 -16 13
-11 21 -11 45 1 38 18 108 30 100 17 -3 -5 -21 -13 -39 -16 -17 -4 -44 -15
-60 -23 -23 -14 -32 -14 -60 -3 -70 28 -194 34 -262 13 -27 -9 -52 -16 -55
-17 -3 0 -27 -6 -55 -12 -85 -20 -105 -21 -105 -8 0 16 25 26 44 19 18 -7 79
24 71 36 -6 10 58 25 78 17 7 -3 40 1 73 7 47 10 65 10 91 0 17 -7 51 -14 75
-15z m-412 -11 c0 -19 -2 -20 -10 -8 -13 19 -13 30 0 30 6 0 10 -10 10 -22z
m478 -90 c-2 -6 -10 -14 -16 -16 -7 -2 -10 2 -6 12 7 18 28 22 22 4z m3782 2
c-19 -13 -30 -13 -30 0 0 6 10 10 23 10 18 0 19 -2 7 -10z m120 0 c0 -15 -27
-23 -47 -16 -15 6 -15 8 -3 16 20 13 50 12 50 0z m-76 -45 c-7 -17 -30 -20
-38 -6 -4 5 0 12 6 14 25 10 37 7 32 -8z m-61 -2 c-7 -2 -21 -2 -30 0 -10 3
-4 5 12 5 17 0 24 -2 18 -5z m211 -46 c-28 -52 -39 -61 -24 -22 5 14 7 25 3
25 -4 0 4 11 17 25 33 35 35 26 4 -28z m-760 9 c-3 -8 3 -16 15 -19 12 -3 21
-2 21 2 0 3 19 7 43 7 23 1 35 -1 27 -5 -29 -12 -21 -31 13 -31 26 -1 29 -2
15 -11 -23 -13 -68 -1 -69 20 0 9 -3 11 -5 6 -2 -6 -23 -9 -47 -8 -32 2 -37 1
-22 -6 17 -8 16 -10 -10 -10 -17 -1 -37 5 -43 11 -10 10 -15 10 -22 -1 -6 -11
-12 -12 -22 -4 -15 12 -88 22 -88 12 0 -3 18 -9 40 -13 22 -3 40 -10 40 -15 0
-6 -15 -7 -33 -4 -18 3 -50 0 -70 -5 -34 -9 -37 -9 -37 9 0 16 5 19 23 15 21
-6 21 -6 -2 6 -20 10 -25 9 -36 -5 -9 -12 -22 -17 -41 -14 -40 5 -36 26 8 42
43 14 215 9 236 -8 8 -6 12 -6 12 3 0 7 7 10 15 7 8 -4 17 -2 20 3 4 6 -8 10
-27 10 -25 0 -29 3 -18 10 24 15 70 13 64 -4z m810 -25 c-16 -16 -30 -28 -32
-26 -8 8 32 55 46 55 11 0 7 -9 -14 -29z m-581 4 c-6 -18 -34 -16 -41 3 -2 7
6 12 22 12 19 0 24 -4 19 -15z m122 -8 c6 -5 3 -7 -7 -3 -10 3 -18 1 -18 -5 0
-6 -5 -7 -10 -4 -8 5 -7 11 1 21 6 8 15 11 18 7 3 -4 11 -12 16 -16z m-3445
-23 c0 -8 -7 -14 -15 -14 -17 0 -18 2 -9 24 7 18 24 12 24 -10z m2712 9 c14
-9 -51 -21 -117 -22 -40 -1 -40 -1 -10 18 30 19 101 21 127 4z m638 -12 c0 -6
-4 -13 -10 -16 -5 -3 -10 1 -10 9 0 9 5 16 10 16 6 0 10 -4 10 -9z m-678 -22
c3 -9 10 -9 27 0 26 14 34 11 26 -12 -10 -24 -51 -30 -75 -10 -14 13 -16 19
-7 25 17 11 25 10 29 -3z m335 -13 c-15 -12 -16 -14 -2 -20 8 -3 15 -12 15
-21 0 -11 -10 -15 -37 -13 -37 1 -37 1 -5 5 31 4 46 23 18 23 -26 0 -28 20 -4
29 32 13 36 13 15 -3z m-976 -8 c27 17 44 16 29 -3 -7 -8 -19 -15 -26 -15 -8
0 -14 -4 -14 -10 0 -5 9 -10 20 -10 11 0 20 4 20 10 0 5 8 6 17 3 12 -5 15 -2
10 10 -5 13 -1 17 17 17 14 0 33 -3 43 -7 14 -6 11 -9 -17 -15 -27 -5 -23 -6
15 -3 28 2 62 7 78 11 17 4 27 2 27 -5 0 -6 -9 -11 -20 -11 -11 0 -19 -5 -17
-12 1 -8 -20 -13 -68 -14 -96 -3 -105 -4 -105 -15 0 -12 107 -12 115 1 7 12
25 4 25 -12 0 -5 -7 -8 -15 -4 -8 3 -15 1 -15 -4 0 -5 -19 -11 -42 -13 -41 -3
-41 -4 10 -5 28 -1 52 -6 52 -12 0 -16 -97 -12 -114 5 -8 8 -31 15 -53 14 -30
0 -34 -2 -18 -9 18 -8 17 -9 -6 -7 -16 1 -26 7 -26 19 -1 10 3 18 8 18 6 0 7
5 4 10 -10 16 14 40 33 33 9 -3 4 6 -13 21 -30 27 -30 27 -2 15 22 -10 33 -10
48 -1z m513 3 c7 -11 -28 -21 -73 -21 -58 0 -16 23 51 29 9 0 19 -3 22 -8z
m754 0 c11 -6 9 -9 -5 -13 -12 -3 -20 0 -20 8 0 16 6 17 25 5z m-443 -11 c-3
-5 -14 -11 -23 -11 -9 -1 -3 -5 13 -9 20 -5 24 -8 10 -9 -17 -1 -18 -3 -5 -11
11 -8 8 -10 -15 -7 -50 6 -36 49 18 56 5 1 5 -3 2 -9z m-945 -31 c0 -11 -4
-18 -8 -15 -4 2 -14 1 -22 -5 -13 -7 -12 -9 3 -9 9 0 17 -4 17 -10 0 -5 -4
-10 -10 -10 -5 0 -7 -7 -4 -15 5 -11 -2 -15 -27 -16 -19 -1 -37 -1 -41 0 -4 0
-5 -5 -2 -12 2 -7 -3 -21 -12 -32 -15 -20 -15 -20 -11 2 4 19 2 20 -22 13 -48
-15 -56 -20 -26 -16 29 4 54 -14 55 -40 0 -6 -41 -21 -91 -33 -71 -17 -93 -20
-105 -10 -10 8 -18 8 -26 1 -15 -12 -123 -29 -155 -24 -13 2 -23 8 -23 14 0 6
10 8 24 4 13 -3 43 0 67 8 24 7 63 19 87 26 23 8 48 20 55 29 10 12 9 14 -5 8
-20 -7 -25 9 -5 16 7 3 5 6 -5 6 -21 1 -24 21 -4 21 8 0 22 7 30 16 13 12 16
12 16 2 0 -8 -6 -20 -12 -27 -11 -10 -7 -11 17 -6 116 26 143 42 53 30 -38 -4
-49 -3 -38 4 8 6 28 11 43 11 16 0 26 4 23 8 -3 5 -20 7 -38 5 -25 -3 -29 -2
-18 6 8 6 50 11 93 11 44 0 76 4 73 9 -7 11 36 61 46 55 5 -3 8 -14 8 -25z
m740 21 c0 -5 -13 -10 -29 -10 -17 0 -33 -5 -36 -10 -4 -6 -11 -7 -17 -4 -6 4
-8 2 -4 -4 15 -25 -52 -35 -92 -13 -35 19 -16 31 51 32 34 0 71 4 82 9 28 12
45 12 45 0z m-842 -21 c29 -1 -28 -19 -75 -24 -47 -5 -59 11 -15 21 15 3 32 7
37 9 6 2 16 2 23 -1 8 -2 21 -4 30 -5z m577 2 c-15 -14 -75 -24 -75 -13 0 12
22 19 60 21 14 1 20 -3 15 -8z m805 -1 c0 -5 -9 -10 -20 -10 -11 0 -20 5 -20
10 0 6 9 10 20 10 11 0 20 -4 20 -10z m-529 -21 c-16 -6 -28 -6 -35 1 -7 7 1
10 25 9 32 0 33 -1 10 -10z m-365 -17 c-15 -3 -16 -6 -5 -13 11 -7 11 -9 1 -9
-12 0 -42 23 -42 33 0 2 15 1 33 -2 21 -3 26 -6 13 -9z m104 -7 c0 -10 -45
-23 -55 -17 -5 3 1 9 15 13 33 9 40 10 40 4z m75 -5 c-3 -5 -15 -10 -26 -10
-11 0 -17 5 -14 10 3 6 15 10 26 10 11 0 17 -4 14 -10z m363 3 c-10 -2 -26 -2
-35 0 -10 3 -2 5 17 5 19 0 27 -2 18 -5z m-58 -24 c10 -6 4 -7 -15 -3 -16 4
-37 11 -45 15 -10 6 -4 7 15 3 17 -4 37 -11 45 -15z m-250 -9 c12 -8 11 -10
-7 -10 -13 0 -23 5 -23 10 0 13 11 13 30 0z m-2660 -31 c0 -5 -7 -9 -15 -9
-15 0 -20 12 -9 23 8 8 24 -1 24 -14z m-72 -18 c-8 -12 -18 -18 -21 -15 -4 4
-13 1 -21 -5 -8 -7 -20 -10 -25 -7 -5 4 -12 2 -16 -4 -3 -5 -16 -10 -28 -10
-18 0 -19 2 -7 14 21 19 60 30 60 16 0 -7 5 -6 14 2 8 7 12 16 9 20 -2 4 2 5
10 2 8 -3 18 0 22 6 4 6 9 9 12 6 3 -2 -1 -14 -9 -25z m2497 -1 c21 8 35 5 35
-9 0 -8 -69 -13 -81 -5 -5 3 -6 10 -3 16 4 6 10 6 16 0 7 -7 19 -7 33 -2z
m-2645 -20 c-7 -4 -9 -13 -6 -19 4 -6 2 -11 -3 -11 -12 0 -14 11 -5 34 3 9 11
13 16 10 6 -4 6 -9 -2 -14z m1780 10 c0 -5 -9 -10 -21 -10 -11 0 -17 5 -14 10
3 6 13 10 21 10 8 0 14 -4 14 -10z m-1825 -42 c2 -2 -54 -18 -125 -34 -87 -21
-126 -26 -119 -17 6 7 15 10 20 7 5 -3 9 0 9 6 0 6 4 9 9 6 11 -7 81 21 81 32
0 7 117 8 125 0z m1703 -10 c-5 -15 -58 -30 -58 -17 0 5 10 14 23 19 31 12 39
12 35 -2z m745 1 c7 -1 1 -4 -13 -8 -32 -10 -58 -2 -38 10 7 5 19 7 26 4 8 -3
19 -5 25 -6z m100 -16 c-13 -2 -33 -2 -45 0 -13 2 -3 4 22 4 25 0 35 -2 23 -4z
m1126 -23 c11 -24 11 -24 -3 -6 -9 11 -16 24 -16 30 0 12 5 7 19 -24z m-1674
0 c-4 -7 9 -9 37 -5 40 5 41 4 13 -6 -26 -10 -231 -22 -223 -13 2 1 26 6 53 9
28 3 64 9 80 14 41 13 47 13 40 1z m1800 -29 c2 -17 0 -31 -4 -31 -4 0 -7 16
-8 36 -1 42 6 40 12 -5z m-1555 19 c0 -5 -7 -10 -15 -10 -8 0 -15 5 -15 10 0
6 7 10 15 10 8 0 15 -4 15 -10z m-180 -32 c-32 -12 -51 -3 -20 10 14 5 29 7
34 4 5 -3 -1 -9 -14 -14z m-270 2 c-19 -13 -30 -13 -30 0 0 6 10 10 23 10 18
0 19 -2 7 -10z m70 -20 c-21 -21 -65 -26 -90 -10 -12 8 -9 10 12 10 15 0 30 5
33 10 3 6 19 10 36 10 29 0 29 0 9 -20z m115 1 c-6 -4 -23 -12 -39 -15 -26 -6
-28 -5 -17 8 8 9 25 16 39 16 15 0 22 -4 17 -9z m20 -41 c4 -6 -11 -10 -37 -9
-36 1 -39 2 -18 9 36 11 48 11 55 0z m-152 -57 c4 -3 -1 -12 -11 -20 -18 -16
-17 -15 51 3 12 4 1 -5 -25 -19 -45 -25 -76 -27 -79 -6 -5 27 -2 34 21 40 35
10 36 10 43 2z m-7083 -83 c0 -16 7 -41 14 -57 8 -15 17 -36 21 -47 4 -13 10
-16 23 -11 9 4 29 10 45 13 21 3 27 0 27 -14 0 -21 54 -68 95 -84 15 -6 39
-10 55 -10 38 0 47 -16 12 -23 -29 -5 -146 13 -158 26 -4 4 -3 7 3 7 6 0 -2
14 -18 31 -18 19 -36 29 -49 27 -20 -3 -19 -6 15 -45 24 -29 32 -43 22 -43
-25 0 -78 51 -94 89 -17 39 -33 182 -21 175 4 -3 8 -18 8 -34z m5487 -17 c-3
-10 -5 -2 -5 17 0 19 2 27 5 18 2 -10 2 -26 0 -35z m2643 3 c0 -5 -104 -36
-117 -35 -11 1 88 37 105 38 6 1 12 -1 12 -3z m-7540 -46 c20 -6 21 -8 5 -8
-11 0 -31 4 -45 8 -20 6 -21 8 -5 8 11 0 31 -4 45 -8z m7311 -26 c-18 -8 -36
-13 -39 -10 -6 7 37 25 58 25 8 -1 0 -7 -19 -15z m-51 -12 c0 -4 -37 -18 -82
-31 -46 -13 -90 -26 -98 -28 -8 -2 -6 1 5 8 17 11 147 56 168 58 4 1 7 -2 7
-7z m-6722 -23 c51 -5 103 -14 115 -20 12 -7 101 -15 202 -20 282 -12 431 -33
457 -65 7 -8 29 -32 48 -52 129 -138 133 -141 173 -161 15 -8 27 -18 27 -22 0
-13 51 -19 387 -44 592 -44 667 -49 695 -42 44 12 78 48 93 102 7 28 14 42 14
33 1 -9 4 -24 8 -34 3 -10 2 -15 -3 -12 -5 4 -10 -5 -11 -19 -2 -36 -33 -75
-75 -96 -37 -18 -112 -21 -290 -13 -37 2 -73 -1 -80 -5 -7 -4 -19 -3 -26 4
-11 8 -16 7 -23 -5 -8 -15 -53 -17 -67 -3 -4 4 0 6 8 5 27 -4 50 0 50 9 0 4
-12 7 -27 5 -16 -2 -55 -6 -88 -9 -33 -3 -68 -8 -77 -11 -10 -3 -18 -1 -18 4
0 10 -57 27 -75 23 -47 -11 -149 -8 -173 5 -15 7 -47 14 -72 14 -26 0 -52 6
-59 13 -11 10 -12 9 -6 -1 13 -25 -22 -38 -86 -32 -46 4 -58 3 -55 -7 3 -7 -4
-22 -16 -32 -12 -12 -18 -26 -15 -35 4 -10 1 -16 -9 -16 -11 0 -15 -6 -11 -19
3 -12 -1 -22 -10 -25 -8 -4 -13 -13 -9 -21 8 -22 -12 -61 -40 -76 -13 -7 -24
-20 -24 -29 0 -9 -9 -26 -20 -38 -24 -26 -83 -29 -233 -12 -51 6 -150 15 -222
19 -170 11 -554 68 -582 86 -34 22 -39 39 -63 185 -11 74 -27 167 -34 205 -23
116 -5 240 37 271 23 16 72 15 285 -7z m6522 -37 c0 -9 -390 -126 -397 -118
-7 6 -11 5 132 46 61 18 142 43 180 55 79 27 85 28 85 17z m-6921 -67 c20 -6
22 -9 9 -16 -9 -5 -30 -6 -47 -3 -31 6 -37 14 -24 27 6 7 11 6 62 -8z m-129
-47 c0 -13 -23 -5 -28 10 -2 7 2 10 12 6 9 -3 16 -11 16 -16z m-81 -22 c112
-19 209 -32 217 -29 8 3 14 0 14 -6 0 -6 7 -11 16 -11 14 0 14 -3 4 -15 -7 -8
-26 -15 -42 -15 -38 0 -161 31 -169 42 -3 6 -9 9 -13 8 -3 -1 -23 1 -44 4 -20
4 -50 8 -67 10 -16 2 -57 11 -90 19 -33 9 -71 18 -85 20 -16 3 -11 5 16 6 23
0 132 -14 243 -33z m201 -8 c0 -13 -20 -9 -36 7 -23 22 -6 40 17 19 10 -9 19
-21 19 -26z m1454 -114 c44 -23 72 -28 209 -38 88 -6 161 -8 163 -4 3 5 20 7
37 7 32 -2 32 -2 -3 -8 -30 -6 -24 -8 40 -14 41 -4 143 -12 225 -17 184 -11
365 -32 365 -42 0 -16 -133 -8 -570 36 -80 9 -206 18 -280 21 -179 8 -188 10
-234 50 -49 43 -27 47 48 9z m3256 -285 c0 -5 -4 -9 -10 -9 -5 0 -10 7 -10 16
0 8 5 12 10 9 6 -3 10 -10 10 -16z m-1023 -264 c0 -8 -4 -15 -9 -15 -4 0 -8 7
-8 15 0 8 4 15 8 15 5 0 9 -7 9 -15z"/>
      <path d="M9534 2018 c-3 -4 4 -8 15 -8 12 0 21 4 21 8 0 5 -7 9 -15 9 -9 0
-18 -4 -21 -9z"/>
      <path d="M9266 1885 c-22 -21 -24 -25 -9 -25 22 1 53 23 53 39 0 18 -15 13
-44 -14z"/>
      <path d="M2760 1440 c-22 -22 -25 -36 -10 -45 5 -3 9 -16 8 -28 -2 -25 17
-219 37 -378 13 -112 31 -154 72 -170 39 -15 366 -51 405 -45 22 4 38 2 38 -3
0 -6 12 -10 28 -9 55 2 408 -32 438 -42 41 -13 82 4 91 38 10 40 -7 176 -23
185 -8 4 -14 13 -14 20 0 7 4 6 10 -3 7 -11 9 -4 9 25 -1 22 -3 33 -6 23 -4
-16 -34 -35 -32 -20 1 4 0 10 -1 15 -1 4 -3 15 -5 25 -1 9 -4 24 -8 32 -3 8
-8 43 -11 78 -5 62 -5 62 26 62 30 0 30 0 23 47 -11 72 -29 101 -73 112 -20 6
-134 17 -252 25 -276 20 -279 20 -510 51 -107 13 -201 25 -207 25 -7 0 -22 -9
-33 -20z m288 -77 c-21 -2 -55 -2 -75 0 -21 2 -4 4 37 4 41 0 58 -2 38 -4z
m287 -38 c77 -7 181 -12 232 -11 50 1 90 -1 87 -5 -2 -4 9 -10 26 -14 16 -4
34 -14 40 -23 5 -9 10 -13 10 -8 0 5 -7 18 -17 28 -9 10 -11 18 -5 18 29 0 41
-52 61 -260 14 -142 18 -217 11 -224 -7 -7 -10 -3 -10 10 0 15 -2 16 -9 5 -8
-12 -42 -10 -222 8 -118 12 -286 26 -374 32 -226 16 -228 16 -236 64 -15 86
-41 375 -35 390 5 14 24 15 153 10 82 -4 211 -13 288 -20z m-469 -33 c7 -4 11
-30 10 -60 0 -28 2 -52 5 -52 8 0 10 -16 12 -84 2 -46 -2 -61 -15 -69 -9 -6
-19 -9 -22 -7 -2 3 -9 52 -16 110 -6 58 -13 117 -15 132 -4 37 12 49 41 30z"/>
      <path d="M3763 895 c0 -22 2 -30 4 -17 2 12 2 30 0 40 -3 9 -5 -1 -4 -23z"/>
      <path d="M11915 3370 c-7 -12 18 -24 37 -18 8 3 5 9 -9 16 -14 8 -24 9 -28 2z"/>
      <path d="M10824 3356 c11 -9 24 -16 30 -16 12 0 7 5 -24 19 -24 11 -24 11 -6
-3z"/>
      <path d="M8413 3303 c-18 -2 -33 -9 -33 -14 0 -9 22 -6 80 12 28 8 10 9 -47 2z"/>
      <path d="M8300 3280 c-34 -7 -34 -7 -5 -8 17 0 41 4 55 8 33 11 0 11 -50 0z"/>
      <path d="M8223 3263 c9 -2 23 -2 30 0 6 3 -1 5 -18 5 -16 0 -22 -2 -12 -5z"/>
      <path d="M11915 3251 c-4 -7 5 -9 26 -4 23 4 30 3 25 -5 -4 -8 0 -12 11 -13
16 0 16 -1 -2 -9 -28 -12 -47 -12 -40 0 3 6 -1 10 -9 10 -9 0 -16 -7 -16 -15
0 -8 -12 -21 -27 -29 -36 -20 -25 -20 20 -1 20 8 52 15 70 15 19 0 40 6 47 14
6 8 21 16 32 18 12 2 23 10 25 18 4 12 3 13 -5 1 -7 -9 -19 -12 -38 -7 -62 14
-112 17 -119 7z"/>
      <path d="M1130 3198 c-22 -36 -53 -162 -71 -285 -6 -46 -15 -83 -20 -83 -5 0
-9 9 -9 20 0 27 -16 25 -36 -5 -30 -47 -103 -22 -90 30 5 18 2 25 -9 25 -8 0
-15 5 -15 11 0 6 -6 9 -14 6 -18 -7 -31 22 -16 37 15 15 12 42 -5 56 -12 10
-18 9 -32 -5 -11 -12 -18 -14 -21 -6 -3 9 -7 9 -18 0 -8 -6 -12 -14 -9 -18 6
-11 -69 -8 -76 3 -4 5 -13 5 -20 0 -28 -17 -56 -12 -69 11 -7 13 -9 29 -5 36
6 9 3 11 -8 6 -9 -3 -31 4 -50 18 -35 23 -35 23 -11 -23 22 -44 28 -75 74
-382 5 -36 12 -84 15 -107 5 -28 3 -43 -4 -43 -6 0 -11 -9 -11 -21 0 -11 4
-18 9 -14 14 8 18 -12 46 -236 33 -271 33 -285 -2 -297 -27 -10 -26 -10 15
-11 47 -1 57 -17 15 -25 -16 -2 19 -2 77 1 110 5 149 6 190 3 27 -1 117 14
125 22 3 3 -14 5 -37 6 -56 3 -63 12 -8 12 23 0 78 -12 121 -27 44 -14 82 -23
87 -19 8 8 5 123 -4 137 -3 5 -20 9 -38 9 -18 0 -54 3 -80 6 -71 10 -34 23 46
17 68 -6 68 -6 69 48 1 60 4 57 14 -13 6 -48 6 -48 58 -49 29 0 78 -4 110 -8
57 -7 57 -7 57 45 0 29 -4 55 -8 58 -17 10 -183 26 -339 33 -90 3 -163 10
-163 14 0 10 57 22 69 14 7 -3 10 28 9 87 -2 103 9 138 45 138 18 0 19 2 7 10
-8 5 -58 10 -111 10 -96 0 -96 0 -92 -52 7 -89 42 -354 53 -403 6 -28 -2 -45
-20 -45 -12 0 -20 7 -20 18 0 12 -4 10 -13 -8 -7 -14 -19 -25 -27 -26 -9 -1
-10 1 -2 3 7 3 12 24 13 56 0 41 3 48 10 32 12 -25 3 177 -10 220 -5 17 -10
24 -10 17 -2 -23 -21 -2 -21 24 0 13 5 24 10 24 6 0 10 5 10 11 0 5 -5 7 -11
3 -8 -4 -9 0 -4 15 3 11 2 21 -3 21 -8 0 -18 55 -27 145 -1 11 -4 45 -8 75 -5
37 -4 48 2 35 8 -17 10 -15 10 14 1 25 -2 32 -14 27 -9 -3 -15 0 -15 10 0 8 5
12 10 9 6 -3 10 4 10 15 0 15 -5 20 -14 17 -9 -4 -17 2 -21 13 -7 22 -37 34
-63 26 -20 -7 -62 26 -62 49 0 7 -6 15 -12 18 -7 2 -10 8 -5 13 4 4 14 -2 23
-14 17 -24 64 -29 122 -13 20 6 32 6 32 0 0 -5 -4 -9 -10 -9 -5 0 -10 -4 -10
-9 0 -4 19 -5 43 0 51 10 153 11 196 3 30 -6 32 -9 29 -48 -3 -41 -3 -41 -103
-41 -113 -1 -103 13 -90 -119 11 -110 9 -108 179 -113 146 -4 146 -4 146 29 0
71 -5 75 -84 83 -40 3 -79 10 -86 16 -17 10 64 6 410 -20 167 -12 237 -15 242
-7 5 8 8 7 8 -1 0 -9 21 -13 73 -13 79 -1 90 -3 286 -55 73 -19 168 -42 210
-49 42 -8 163 -30 269 -50 106 -20 240 -42 297 -49 104 -13 104 -13 108 12 4
26 4 26 6 0 1 -26 3 -27 99 -38 188 -21 479 -42 632 -44 85 -1 157 -5 160 -8
5 -7 517 -35 823 -46 153 -5 187 -4 187 7 0 10 3 10 13 -2 10 -13 42 -17 170
-21 108 -3 157 -1 157 6 0 6 6 4 13 -5 9 -12 40 -18 129 -23 116 -7 116 -7
121 22 4 28 4 28 6 1 1 -32 15 -36 31 -10 10 15 10 14 5 -4 -5 -21 -1 -22 77
-28 46 -4 95 -9 111 -12 18 -4 27 -1 27 8 0 9 2 10 8 1 4 -7 59 -16 131 -23
101 -9 126 -9 132 2 7 10 9 9 9 -4 0 -9 6 -19 13 -21 9 -4 9 -7 0 -14 -15 -11
-1 -115 16 -121 25 -8 8 -21 -31 -25 -43 -4 -43 -4 -2 -5 38 -2 41 -4 42 -32
0 -17 -4 -28 -9 -24 -14 8 -29 10 -329 44 -151 17 -290 33 -309 37 -31 5 -33
4 -26 -13 9 -24 10 -33 2 -65 -6 -23 -4 -25 27 -25 33 0 34 1 29 33 -6 33 -5
33 33 32 46 0 337 -36 312 -38 -18 -1 -22 -12 -18 -40 2 -13 0 -13 -16 0 -16
13 -16 12 -4 -7 10 -17 24 -21 72 -23 53 -2 63 1 83 23 16 17 30 24 41 19 13
-5 15 -3 9 7 -6 10 3 12 44 8 28 -3 53 -7 55 -9 2 -2 6 -34 10 -70 7 -76 3
-81 -63 -72 -37 5 -59 23 -28 23 6 0 -1 7 -18 16 -16 8 -46 14 -65 13 -20 -2
-40 0 -46 4 -6 3 -27 6 -47 5 -26 -1 -37 -6 -41 -20 -4 -17 -11 -19 -63 -14
-47 4 -52 4 -23 -4 35 -9 261 -30 357 -33 47 -2 53 -4 53 -24 0 -12 -5 -25
-10 -28 -6 -4 -8 -10 -6 -14 3 -4 6 -28 7 -54 2 -31 7 -47 16 -47 7 0 13 -4
13 -10 0 -5 -4 -10 -10 -10 -5 0 -10 -12 -11 -27 0 -25 -1 -25 -8 -8 -5 11 -7
23 -5 26 4 7 -41 13 -173 25 -73 7 -73 7 -73 -20 0 -16 -4 -25 -10 -21 -5 3
-10 17 -10 29 0 22 -5 24 -87 30 -49 4 -103 9 -120 12 -32 6 -33 5 -33 -25 0
-19 -4 -30 -10 -26 -5 3 -10 17 -10 31 0 13 -2 24 -5 24 -3 0 -70 7 -148 15
-127 13 -571 34 -767 37 -41 1 -94 -5 -117 -12 -38 -12 -44 -12 -61 3 -17 15
-88 21 -554 47 -340 19 -587 37 -679 50 -315 46 -578 95 -865 161 -165 38
-303 69 -306 69 -3 0 -3 -11 -1 -24 3 -13 0 -27 -7 -31 -8 -5 -10 4 -8 31 4
46 9 47 127 20 41 -9 76 -15 78 -12 2 2 1 26 -3 54 -6 51 -6 51 -94 71 -48 12
-92 21 -98 21 -7 0 -10 -22 -9 -57 2 -58 2 -58 -93 -56 -52 2 -105 5 -117 8
-21 5 -23 2 -23 -37 0 -32 -3 -39 -10 -28 -5 8 -10 27 -10 41 0 26 -2 27 -72
33 -40 4 -90 9 -110 12 -38 6 -38 6 -38 -36 0 -25 -4 -39 -10 -35 -5 3 -10 21
-10 39 0 38 0 38 -156 52 -72 6 -72 6 -67 -62 3 -38 8 -72 12 -75 3 -4 54 -10
113 -14 106 -7 106 -7 111 22 4 28 4 28 6 1 1 -31 8 -33 149 -43 81 -6 82 -6
83 17 1 22 1 22 10 -3 10 -26 13 -27 121 -34 88 -6 112 -5 119 6 7 12 9 11 9
-1 0 -8 9 -21 20 -28 11 -7 20 -18 20 -25 0 -9 10 -12 31 -9 21 3 30 1 25 -6
-7 -11 131 -39 141 -28 4 3 -5 6 -18 6 -16 0 -20 3 -11 8 22 15 2 42 -32 43
-17 1 -42 5 -56 10 -19 7 -14 8 20 4 25 -3 90 -9 145 -15 55 -5 118 -15 140
-20 84 -21 169 -30 176 -19 5 8 8 8 10 0 2 -6 72 -22 154 -36 83 -13 166 -29
185 -35 19 -5 51 -10 72 -10 20 0 48 -4 63 -10 14 -5 67 -12 118 -15 51 -3
196 -14 322 -25 127 -11 257 -20 290 -22 60 -2 60 -2 66 33 6 34 6 34 8 -2 1
-36 1 -36 139 -47 201 -17 190 -19 195 26 4 37 4 37 5 -4 2 -41 2 -41 135 -53
72 -7 141 -14 152 -15 11 -2 26 1 33 7 10 8 16 7 21 -1 11 -19 307 -38 326
-22 9 8 15 9 15 2 0 -6 30 -13 68 -16 37 -4 105 -11 152 -16 47 -5 143 -14
213 -20 71 -6 135 -14 143 -17 8 -3 14 1 14 11 0 9 5 16 10 16 6 0 10 -6 10
-14 0 -14 28 -20 158 -32 64 -6 75 -4 87 12 14 18 14 18 15 -2 0 -20 9 -23 98
-34 53 -6 107 -14 119 -17 17 -4 25 0 31 18 9 23 9 23 14 -4 4 -23 -2 -34 -15
-24 -2 1 -11 -4 -20 -11 -15 -12 -15 -16 -1 -37 14 -21 13 -23 -12 -40 -23
-15 -25 -19 -11 -27 27 -15 110 -19 118 -6 6 9 17 9 50 -1 27 -8 44 -9 48 -3
7 12 83 12 91 1 9 -13 60 -22 60 -11 0 5 -7 12 -15 16 -17 6 -21 36 -4 36 5 0
8 -4 5 -9 -4 -5 3 -7 14 -4 11 3 18 9 15 13 -3 5 3 11 12 13 10 3 -2 5 -27 6
-90 2 -287 61 -274 82 2 4 -4 95 -15 201 -11 106 -21 243 -23 303 -2 61 -6
112 -10 115 -4 3 -10 37 -13 75 -21 225 -22 240 -24 191 -1 -48 -1 -48 -83
-42 -46 3 -227 17 -403 31 -176 13 -435 29 -575 35 -404 16 -1066 39 -1425 50
-181 5 -359 12 -395 15 -36 3 -207 33 -380 65 -173 33 -342 64 -375 69 -33 5
-126 23 -207 40 -166 35 -287 53 -508 76 -85 8 -171 17 -190 20 -19 2 -106 12
-192 21 -86 10 -162 20 -168 24 -7 4 -8 20 -2 46 8 39 8 39 68 36 64 -3 387
-33 609 -58 77 -8 250 -36 383 -60 134 -25 246 -43 250 -40 3 3 -5 6 -17 6
-12 0 -20 4 -17 9 5 7 115 -6 126 -16 2 -2 -1 -8 -8 -12 -19 -11 557 -112 698
-122 69 -4 280 -13 470 -19 1121 -33 1398 -46 1944 -85 432 -32 396 -33 395 8
-1 17 -3 24 -6 14 -6 -21 -15 -21 -236 -2 -540 46 -612 51 -1067 65 -162 5
-531 18 -820 29 -289 11 -574 22 -635 24 -62 3 -151 14 -205 26 -192 43 -267
60 -350 76 -142 28 -263 56 -299 71 -38 16 -101 19 -101 5 0 -6 20 -13 45 -17
25 -3 48 -11 52 -17 3 -5 2 -8 -3 -5 -5 3 -42 11 -81 18 -40 6 -73 16 -73 21
0 5 7 9 15 9 8 0 15 4 15 9 0 10 -49 44 -68 47 -8 2 -21 9 -30 17 -32 28 -155
88 -175 85 -21 -3 -26 -9 -53 -70 -15 -35 -20 -38 -56 -38 -23 0 -37 4 -33 10
3 6 1 10 -4 10 -6 0 -11 -4 -11 -10 0 -12 -72 -12 -165 0 -38 5 -151 16 -250
25 -201 17 -276 30 -287 48 -24 38 18 329 55 375 5 6 7 12 3 12 -3 0 -15 -14
-26 -32z m1285 -538 c13 -5 14 -9 5 -9 -8 0 -24 4 -35 9 -13 5 -14 9 -5 9 8 0
24 -4 35 -9z m-1422 -65 c3 -13 -38 -19 -72 -9 -26 7 -26 7 -1 15 32 10 70 7
73 -6z m1514 -162 c-3 -10 -5 -2 -5 17 0 19 2 27 5 18 2 -10 2 -26 0 -35z
m-1477 -102 c0 -13 -19 -18 -51 -13 -16 2 -26 8 -23 13 7 12 74 12 74 0z
m2447 -28 c-3 -10 -5 -4 -5 12 0 17 2 24 5 18 2 -7 2 -21 0 -30z m-2419 -240
c2 -9 -9 -13 -37 -13 -44 0 -64 16 -29 23 36 7 61 3 66 -10z m4992 -715 c0 -4
-6 -8 -12 -9 -7 0 2 -5 21 -10 18 -6 31 -12 29 -14 -2 -3 -21 0 -41 6 -39 11
-51 35 -17 35 11 0 20 -4 20 -8z m170 -20 c58 2 76 -4 61 -21 -8 -11 -26 -10
-96 4 -99 20 -132 32 -60 22 28 -3 70 -6 95 -5z"/>
      <path d="M43 3208 c-4 -7 -8 -16 -8 -20 0 -3 -4 -10 -9 -15 -5 -5 -6 -2 -1 6
5 9 3 12 -6 9 -9 -3 -15 -22 -17 -49 -3 -44 -3 -44 17 -13 24 39 33 45 96 61
50 13 50 13 -9 7 -51 -5 -58 -4 -53 10 8 19 1 21 -10 4z"/>
      <path d="M88 3158 c-33 -9 -77 -43 -67 -52 2 -2 28 1 57 7 67 14 77 4 50 -48
-17 -32 -21 -59 -22 -135 -1 -85 2 -101 27 -152 32 -66 110 -140 172 -163 40
-15 40 -15 -4 -11 -25 3 -39 1 -32 -3 11 -7 11 -10 0 -14 -8 -3 27 -5 76 -5
69 1 80 3 45 8 -45 6 -45 6 -5 14 22 5 55 18 73 29 34 20 92 90 92 111 0 6 -9
-2 -20 -19 -11 -16 -20 -26 -20 -21 0 5 -6 3 -14 -4 -8 -6 -13 -17 -10 -25 7
-16 -72 -55 -113 -55 -83 0 -176 63 -222 150 -27 51 -33 73 -34 128 -1 107 57
212 124 227 16 4 29 10 29 15 0 18 -133 31 -182 18z"/>
      <path d="M11470 3134 c-65 -14 -65 -14 -5 -8 33 2 64 9 69 14 6 6 8 9 6 9 -3
-1 -34 -8 -70 -15z"/>
      <path d="M690 3089 c-30 -10 -59 -24 -65 -30 -5 -5 22 2 60 16 102 39 107 50
5 14z"/>
      <path d="M11723 3063 c9 -2 23 -2 30 0 6 3 -1 5 -18 5 -16 0 -22 -2 -12 -5z"/>
      <path d="M13048 3060 c-4 -8 -30 -102 -58 -208 -27 -107 -57 -210 -65 -229
-22 -53 -11 -52 20 2 64 109 119 306 113 402 -2 26 -6 41 -10 33z"/>
      <path d="M2256 3034 c-17 -11 -36 -19 -42 -17 -7 2 -19 -3 -28 -12 -9 -9 -16
-14 -16 -11 0 3 -14 -8 -32 -24 -17 -16 -30 -31 -27 -34 2 -2 45 -16 94 -31
50 -15 117 -40 150 -55 81 -37 105 -44 105 -30 0 6 5 8 11 5 6 -4 8 -9 5 -12
-5 -6 15 -17 135 -72 105 -48 112 -48 145 -6 15 20 28 44 29 53 0 10 11 28 23
42 12 14 21 28 22 33 0 8 -142 86 -168 91 -10 2 -24 5 -32 9 -8 3 -37 11 -65
17 -27 7 -59 18 -70 24 -85 50 -189 63 -239 30z m174 -39 c-14 -17 -30 -20
-30 -6 0 5 8 12 18 14 9 3 19 5 21 6 2 0 -2 -6 -9 -14z"/>
      <path d="M10773 3053 c9 -2 23 -2 30 0 6 3 -1 5 -18 5 -16 0 -22 -2 -12 -5z"/>
      <path d="M11658 3048 c-16 -5 -28 -16 -28 -23 0 -11 8 -9 35 6 50 30 47 37 -7
17z"/>
      <path d="M11453 3023 c9 -2 23 -2 30 0 6 3 -1 5 -18 5 -16 0 -22 -2 -12 -5z"/>
      <path d="M11515 3021 c19 -9 102 -15 94 -7 -2 2 -29 7 -59 10 -37 4 -48 3 -35
-3z"/>
      <path d="M1 2905 c0 -55 8 -174 20 -265 37 -299 69 -517 78 -541 21 -55 22 17
3 203 -10 106 -15 195 -10 196 4 2 8 10 8 18 0 9 -4 13 -9 10 -11 -7 -21 18
-21 54 0 16 -4 32 -10 35 -5 3 -10 22 -10 42 0 19 -7 77 -15 127 -8 50 -19
120 -24 156 -9 65 -9 65 -10 -35z"/>
      <path d="M1036 2943 c-4 -15 -9 -36 -12 -45 -3 -10 -1 -18 4 -18 5 0 12 19 15
42 7 50 2 62 -7 21z"/>
      <path d="M355 2920 c-8 -13 3 -30 18 -30 7 0 6 4 -3 10 -13 8 -12 10 3 10 10
0 15 5 12 10 -3 6 -10 10 -15 10 -5 0 -12 -4 -15 -10z"/>
      <path d="M1908 2885 c-3 -14 -1 -25 3 -25 5 0 9 11 9 25 0 14 -2 25 -4 25 -2
0 -6 -11 -8 -25z"/>
      <path d="M2020 2876 c0 -3 14 -12 30 -21 17 -9 30 -13 30 -11 0 3 -13 12 -30
21 -16 9 -30 13 -30 11z"/>
      <path d="M2837 2814 c-16 -43 -9 -64 20 -64 7 0 13 -4 13 -8 0 -4 25 -21 56
-37 30 -16 57 -32 60 -36 7 -12 44 3 44 18 0 8 5 11 10 8 17 -10 11 4 -10 25
-11 11 -20 29 -20 39 0 20 -67 66 -126 87 -30 10 -31 10 -47 -32z"/>
      <path d="M3133 2783 c9 -2 23 -2 30 0 6 3 -1 5 -18 5 -16 0 -22 -2 -12 -5z"/>
      <path d="M827 2763 c-4 -3 -7 -10 -7 -14 0 -9 39 1 46 12 6 10 -29 12 -39 2z"/>
      <path d="M2788 2715 c-21 -41 -15 -47 67 -75 32 -11 64 -25 73 -32 19 -16 85
-39 92 -32 2 3 -3 10 -12 15 -10 5 -15 15 -12 22 2 7 -3 20 -13 28 -26 22
-136 87 -153 91 -8 2 -17 6 -20 9 -3 4 -13 -8 -22 -26z"/>
      <path d="M6071 2700 c-23 -11 -47 -18 -51 -15 -4 3 -18 -11 -29 -31 -25 -42
-22 -58 3 -19 22 34 90 67 156 75 55 7 55 7 10 8 -26 1 -64 -7 -89 -18z"/>
      <path d="M9643 2713 c9 -2 23 -2 30 0 6 3 -1 5 -18 5 -16 0 -22 -2 -12 -5z"/>
      <path d="M6095 2670 c-52 -17 -104 -55 -91 -67 2 -2 23 1 45 8 52 15 74 2 52
-33 -47 -75 -62 -196 -36 -273 14 -38 14 -38 8 -6 -32 195 73 340 249 342 63
0 63 0 13 18 -82 29 -170 33 -240 11z"/>
      <path d="M3047 2663 c-11 -10 -8 -63 3 -63 6 0 10 16 10 35 0 36 -2 40 -13 28z"/>
      <path d="M11485 2650 c-13 -5 -14 -9 -5 -9 8 0 24 4 35 9 13 5 14 9 5 9 -8 0
-24 -4 -35 -9z"/>
      <path d="M7225 2638 c5 -13 -14 -17 -73 -18 -16 0 -26 -7 -29 -22 -6 -20 -7
-20 -20 -3 -10 14 -16 16 -24 8 -6 -6 -17 -9 -23 -7 -7 3 -21 -5 -32 -17 -10
-13 -13 -19 -5 -14 7 4 40 9 73 10 33 2 64 7 70 13 6 6 17 8 24 5 10 -4 13 0
8 13 -5 18 -5 18 6 1 11 -18 12 -18 26 0 16 21 18 43 4 43 -5 0 -7 -6 -5 -12z"/>
      <path d="M2413 2613 c9 -2 23 -2 30 0 6 3 -1 5 -18 5 -16 0 -22 -2 -12 -5z"/>
      <path d="M5963 2510 c0 -47 2 -66 4 -42 2 23 2 61 0 85 -2 23 -4 4 -4 -43z"/>
      <path d="M6960 2570 c0 -5 6 -10 14 -10 8 0 18 5 21 10 3 6 -3 10 -14 10 -12
0 -21 -4 -21 -10z"/>
      <path d="M8110 2565 c0 -8 -8 -20 -19 -27 -15 -11 2 -13 110 -13 88 0 132 4
141 13 9 9 7 12 -10 12 -12 0 -22 -5 -22 -11 0 -6 -5 -7 -12 -2 -7 4 -24 9
-38 11 -13 2 -30 8 -37 14 -7 6 -22 8 -33 5 -12 -3 -34 -2 -50 3 -23 7 -30 5
-30 -5z"/>
      <path d="M7697 2563 c-4 -3 -15 -7 -25 -8 -32 -3 -62 -16 -57 -26 9 -14 35
-11 51 6 9 8 24 15 34 15 10 0 22 5 25 10 7 11 -18 14 -28 3z"/>
      <path d="M11090 2550 c-36 -10 -56 -18 -45 -19 11 0 47 8 80 18 76 24 51 25
-35 1z"/>
      <path d="M1206 2533 c4 -16 7 -38 7 -50 -1 -27 7 -30 125 -38 92 -7 92 -7 92
48 0 54 0 54 -82 60 -46 4 -98 7 -117 7 -31 0 -33 -1 -25 -27z"/>
      <path d="M6538 2544 c6 -11 18 -28 27 -39 15 -19 15 -18 1 12 -9 17 -21 35
-27 39 -8 4 -8 1 -1 -12z"/>
      <path d="M6857 2553 c-12 -12 -7 -22 8 -17 8 4 15 10 15 15 0 11 -14 12 -23 2z"/>
      <path d="M1445 2496 c3 -28 12 -54 18 -58 7 -4 35 -8 62 -8 28 0 74 -3 103 -7
54 -6 54 -6 51 40 -2 26 0 49 4 53 4 4 7 -6 7 -22 0 -75 4 -78 152 -90 81 -6
86 -5 83 12 -2 11 -4 35 -4 55 -1 45 -7 46 -171 55 -63 3 -159 9 -214 13 -98
7 -98 7 -91 -43z"/>
      <path d="M150 2520 c0 -5 4 -10 9 -10 6 0 13 5 16 10 3 6 -1 10 -9 10 -9 0
-16 -4 -16 -10z"/>
      <path d="M249 2509 c-64 -115 -84 -196 -68 -267 21 -95 94 -203 159 -236 35
-19 104 -30 95 -17 -3 6 -17 11 -31 11 -33 0 -93 32 -126 67 -46 50 -72 112
-76 186 -4 64 12 152 29 162 4 3 3 -11 -2 -30 -13 -46 -8 -127 9 -133 7 -2 12
5 12 17 0 12 -4 21 -9 21 -6 0 -4 15 4 33 10 24 11 37 4 44 -15 15 16 71 46
85 18 8 35 8 62 0 21 -6 76 -16 123 -23 47 -6 90 -16 97 -21 9 -7 11 2 9 37
-4 74 -14 78 -180 83 -143 4 -144 4 -157 -19z"/>
      <path d="M1933 2436 c1 -35 4 -63 7 -61 3 2 41 -5 85 -15 99 -24 105 -24 106
-2 0 14 2 14 9 -3 6 -16 24 -24 76 -34 38 -7 77 -15 86 -17 10 -3 18 2 21 13
4 16 5 16 6 1 1 -18 9 -21 96 -38 33 -6 68 -14 77 -16 13 -4 18 3 21 33 4 38
4 38 5 1 2 -41 -2 -39 106 -58 81 -14 94 -13 99 8 4 14 5 13 6 -4 1 -19 11
-22 91 -34 71 -9 94 -9 105 0 12 10 15 9 15 -2 0 -11 17 -17 63 -22 34 -4 80
-10 101 -13 39 -6 39 -6 34 45 -3 29 -1 52 3 52 5 0 9 -22 9 -49 0 -48 0 -48
55 -55 30 -3 103 -9 161 -13 106 -6 106 -6 103 40 -2 26 -1 47 3 47 5 0 8 -17
8 -37 0 -21 4 -43 8 -50 5 -7 63 -14 166 -19 159 -7 159 -7 153 26 -4 18 -7
43 -7 55 0 22 -3 22 -157 29 -538 22 -1237 123 -1648 237 -38 10 -70 19 -71
19 -1 0 -1 -29 -1 -64z m194 -43 c-3 -10 -5 -2 -5 17 0 19 2 27 5 18 2 -10 2
-26 0 -35z m810 -150 c-3 -10 -5 -2 -5 17 0 19 2 27 5 18 2 -10 2 -26 0 -35z"/>
      <path d="M8212 2490 c-68 -8 -102 -21 -102 -41 0 -5 7 -9 15 -9 14 0 18 -25
19 -102 0 -21 31 -10 84 29 20 15 39 29 42 31 2 1 -1 11 -7 21 -10 16 -9 19 5
16 26 -4 33 4 22 26 -9 15 -7 19 5 19 8 0 15 5 15 10 0 6 -6 9 -12 9 -7 -1
-46 -5 -86 -9z"/>
      <path d="M8404 2486 c-8 -21 -1 -66 11 -68 16 -1 29 28 20 48 -4 11 -7 22 -7
27 3 13 -19 7 -24 -7z"/>
      <path d="M10855 2470 c-13 -5 -14 -9 -5 -9 8 0 24 4 35 9 13 5 14 9 5 9 -8 0
-24 -4 -35 -9z"/>
      <path d="M10605 2406 c-193 -51 -268 -73 -195 -59 19 3 51 6 70 5 26 -1 31 2
20 9 -11 8 -9 10 12 6 15 -2 25 0 22 4 -3 5 3 9 13 10 21 1 18 0 158 38 121
34 137 39 115 39 -8 1 -105 -23 -215 -52z"/>
      <path d="M1072 2403 c-10 -4 -10 -8 2 -17 9 -6 17 -23 18 -38 2 -20 8 -28 21
-28 11 0 18 7 16 18 -4 45 -3 45 89 39 443 -32 512 -35 512 -26 0 11 -58 20
-93 15 -16 -2 -45 0 -65 5 -21 4 -132 12 -248 18 -116 6 -217 13 -225 15 -8 2
-20 2 -27 -1z"/>
      <path d="M11190 2400 c0 -5 10 -10 23 -10 18 0 19 2 7 10 -19 13 -30 13 -30 0z"/>
      <path d="M6337 2393 c-14 -13 -7 -33 11 -33 26 0 34 11 21 27 -13 14 -22 16
-32 6z"/>
      <path d="M11166 2375 c4 -8 10 -12 15 -9 11 6 2 24 -11 24 -5 0 -7 -7 -4 -15z"/>
      <path d="M1780 2366 c0 -8 -6 -16 -13 -19 -9 -3 -12 -16 -9 -35 4 -29 7 -31
61 -37 31 -3 68 -8 84 -10 27 -4 27 -4 27 49 0 53 0 53 -37 60 -66 10 -113 7
-113 -8z"/>
      <path d="M1946 2316 c10 -67 -4 -80 -81 -71 -33 3 -70 9 -82 12 -22 5 -23 2
-23 -45 0 -28 -5 -54 -12 -59 -19 -15 -137 -23 -144 -11 -7 10 -109 7 -119 -4
-4 -3 -3 -28 1 -56 6 -50 6 -50 108 -57 55 -4 105 -8 111 -9 13 -2 6 97 -8
107 -7 4 47 6 119 5 132 -3 132 -3 127 53 -3 31 -1 59 4 62 5 3 42 -3 83 -14
103 -27 110 -26 110 14 0 68 -6 74 -83 91 -40 9 -82 19 -94 22 -22 6 -23 4
-17 -40z m-132 -167 c-3 -6 -7 -9 -8 -7 -1 2 -8 12 -16 22 -14 18 -14 19 8 7
12 -7 20 -17 16 -22z"/>
      <path d="M7930 2339 c14 -6 33 -15 43 -21 11 -5 21 -7 23 -5 9 9 -24 27 -57
32 -32 5 -32 5 -9 -6z"/>
      <path d="M11631 2334 c6 -8 18 -14 26 -14 20 0 8 16 -17 23 -17 4 -19 3 -9 -9z"/>
      <path d="M10983 2333 c9 -2 25 -2 35 0 9 3 1 5 -18 5 -19 0 -27 -2 -17 -5z"/>
      <path d="M10885 2320 c-40 -7 -40 -7 3 -9 23 0 42 4 42 9 0 6 -1 9 -2 9 -2 -1
-21 -5 -43 -9z"/>
      <path d="M10160 2291 c-141 -37 -143 -38 -82 -42 46 -4 50 -2 35 10 -17 12
-16 13 5 8 12 -3 22 -1 22 4 0 5 21 9 48 10 42 0 102 15 77 19 -5 1 -1 5 10
10 38 16 -9 8 -115 -19z"/>
      <path d="M2150 2260 c3 -27 8 -52 11 -54 3 -3 44 -14 91 -24 87 -20 87 -20 91
12 4 31 4 31 5 0 2 -31 3 -31 85 -48 115 -23 110 -24 104 32 -4 32 -3 39 3 22
4 -14 8 -37 9 -52 1 -16 3 -28 5 -28 3 0 69 -11 148 -24 79 -13 167 -27 197
-31 54 -7 54 -7 48 45 -8 65 2 60 11 -6 7 -49 7 -49 102 -61 52 -6 98 -9 102
-7 4 3 6 26 3 52 -4 47 -4 47 7 -5 7 -37 16 -53 27 -54 9 0 78 -6 154 -13 76
-6 140 -9 142 -6 2 4 1 28 -3 56 -7 49 -7 49 -166 61 -129 10 -437 46 -581 69
-54 8 -359 65 -382 71 -19 4 -23 1 -24 -18 -1 -24 -1 -24 -8 1 -6 22 -17 27
-81 42 -112 24 -107 26 -100 -32z m602 -125 c2 -19 0 -35 -4 -35 -4 0 -8 16
-8 35 0 19 2 35 4 35 2 0 6 -16 8 -35z"/>
      <path d="M10477 2290 c5 -20 33 -28 33 -10 0 6 8 10 17 10 24 0 13 6 -23 13
-28 5 -31 4 -27 -13z"/>
      <path d="M1090 2283 c0 -10 5 -25 10 -33 7 -12 11 -10 18 10 11 29 7 40 -14
40 -8 0 -14 -8 -14 -17z"/>
      <path d="M10578 2293 c22 -9 2 -23 -34 -23 -19 0 -34 -4 -34 -10 0 -17 -97
-12 -104 5 -3 8 -16 14 -28 14 -19 -1 -19 -2 -5 -6 12 -3 17 -11 14 -23 -3
-13 0 -17 9 -13 9 3 14 -1 14 -12 0 -11 7 -16 23 -14 12 2 28 0 34 -4 9 -6 11
-3 7 7 -9 23 26 32 101 26 36 -3 65 -2 65 1 0 9 60 17 65 9 6 -10 67 -10 80
-1 19 15 104 33 126 28 15 -4 19 -3 11 5 -5 5 -31 9 -56 7 -25 -3 -46 -2 -46
1 0 3 -13 7 -30 8 -16 1 -30 -2 -30 -7 0 -6 -10 -15 -21 -22 -15 -8 -19 -8
-15 0 9 13 4 14 -28 1 -16 -6 -27 -6 -31 0 -4 6 -17 10 -31 10 -14 0 -22 4
-19 10 4 6 -6 10 -22 9 -15 0 -22 -3 -15 -6z"/>
      <path d="M6591 2275 c-2 -30 -48 -125 -61 -125 -5 0 -10 -5 -10 -11 0 -19 29
11 56 57 16 28 24 53 21 71 -2 17 -5 20 -6 8z"/>
      <path d="M10280 2270 c-33 -4 -40 -7 -27 -12 10 -5 29 -8 42 -8 18 0 22 -4 18
-19 -4 -16 -1 -19 14 -15 15 4 19 12 15 30 -6 30 -7 31 -62 24z"/>
      <path d="M11000 2270 c11 -7 7 -10 -17 -10 -24 0 -33 -5 -33 -16 0 -14 7 -16
40 -11 71 9 92 47 27 47 -24 0 -28 -3 -17 -10z"/>
      <path d="M11848 2269 c-10 -5 -18 -15 -18 -21 0 -6 9 -4 23 5 13 8 32 17 42
20 16 4 15 5 -5 6 -14 0 -33 -4 -42 -10z"/>
      <path d="M12097 2252 c-42 -15 -46 -19 -35 -33 22 -27 59 -30 95 -8 18 12 37
28 42 38 8 14 5 17 -22 18 -18 1 -54 -6 -80 -15z"/>
      <path d="M1516 2251 c-3 -4 6 -6 19 -3 14 2 25 6 25 8 0 8 -39 4 -44 -5z"/>
      <path d="M10915 2251 c-3 -6 -21 -12 -38 -12 -31 -2 -31 -2 -4 -6 15 -2 25 -9
22 -14 -3 -5 1 -6 9 -3 8 3 17 13 20 21 8 19 1 29 -9 14z"/>
      <path d="M9995 2239 c16 -7 13 -8 -14 -6 -19 2 -52 0 -74 -6 -38 -10 -39 -10
-16 -22 14 -8 29 -9 38 -4 9 5 35 13 59 19 43 11 49 31 9 29 -21 0 -21 -1 -2
-10z"/>
      <path d="M10780 2235 c-7 -9 -3 -12 19 -13 16 0 32 5 34 12 7 17 -39 18 -53 1z"/>
      <path d="M3824 2184 c3 -26 10 -51 14 -55 4 -4 78 -10 164 -14 157 -7 157 -7
151 46 -3 30 -6 55 -7 56 -1 1 -75 5 -165 9 -164 7 -164 7 -157 -42z"/>
      <path d="M1193 2213 c9 -2 23 -2 30 0 6 3 -1 5 -18 5 -16 0 -22 -2 -12 -5z"/>
      <path d="M1959 2169 c1 -28 -1 -55 -7 -61 -7 -7 -45 -6 -117 2 -58 7 -108 10
-111 7 -3 -2 -2 -27 2 -55 6 -51 6 -51 83 -57 42 -3 94 -9 115 -12 39 -5 39
-5 33 43 -9 80 0 85 107 58 50 -13 93 -24 95 -24 6 0 -5 100 -12 107 -7 7
-155 43 -177 43 -12 0 -14 -11 -11 -51z"/>
      <path d="M4160 2197 c0 -13 3 -38 6 -55 7 -36 13 -37 211 -47 111 -6 122 -5
126 12 4 14 5 15 6 2 1 -18 95 -29 249 -29 91 0 91 1 76 77 -6 29 -6 29 -317
42 -172 7 -322 15 -334 18 -19 4 -23 1 -23 -20z m337 -44 c-3 -10 -5 -4 -5 12
0 17 2 24 5 18 2 -7 2 -21 0 -30z"/>
      <path d="M11687 2208 c-8 -5 -5 -8 8 -8 11 0 27 5 35 10 12 7 10 9 -8 7 -13
-1 -28 -5 -35 -9z"/>
      <path d="M1373 2203 c9 -2 23 -2 30 0 6 3 -1 5 -18 5 -16 0 -22 -2 -12 -5z"/>
      <path d="M9740 2185 c-47 -13 -80 -24 -75 -24 37 -5 141 -5 133 0 -6 4 -5 10
3 15 15 9 18 9 59 13 23 2 24 3 5 11 -27 12 -28 11 -125 -15z"/>
      <path d="M9980 2200 c-45 -8 -45 -8 8 -7 28 0 52 4 52 9 0 4 -3 7 -7 6 -5 0
-28 -4 -53 -8z"/>
      <path d="M4847 2183 c-3 -5 -3 -29 0 -55 5 -47 5 -47 57 -52 28 -3 103 -7 166
-9 115 -3 115 -3 112 53 -4 56 -4 56 -160 59 -86 1 -160 5 -164 7 -4 2 -9 1
-11 -3z"/>
      <path d="M11893 2180 c-24 -10 -26 -15 -43 -134 -7 -44 -14 -87 -17 -95 -4
-14 -3 -14 7 -1 9 12 10 8 6 -20 -13 -80 12 11 34 120 12 63 27 121 32 128 12
14 11 14 -19 2z"/>
      <path d="M2167 2128 c7 -55 15 -62 88 -77 33 -7 70 -15 83 -18 18 -4 22 -1 23
18 1 24 1 24 8 -1 6 -21 17 -26 91 -42 47 -9 87 -17 90 -18 3 0 3 24 2 54 -4
54 -4 54 -45 60 -23 4 -102 20 -175 36 -176 40 -171 40 -165 -12z"/>
      <path d="M5192 2117 c3 -32 7 -59 9 -61 2 -2 57 -7 122 -11 117 -7 117 -7 117
48 0 61 18 54 -184 73 -69 7 -69 7 -64 -49z"/>
      <path d="M9858 2153 c-23 -9 -38 -22 -37 -32 0 -9 3 -11 5 -4 3 7 12 9 20 6 8
-3 22 3 32 14 9 11 24 22 32 26 13 5 13 5 0 6 -8 0 -32 -7 -52 -16z"/>
      <path d="M7715 2131 c-33 -16 -73 -42 -88 -58 -28 -30 -28 -30 25 -27 29 1 42
1 28 -2 -84 -15 -100 -24 -124 -72 -27 -54 -40 -93 -60 -179 -14 -61 -14 -61
30 -28 25 19 51 32 59 29 8 -4 15 -2 15 3 0 16 120 -4 142 -23 22 -21 101
-138 111 -168 5 -11 13 -16 23 -12 25 10 65 -4 62 -22 -2 -8 3 -17 10 -19 9
-4 11 8 8 47 -3 51 8 58 17 10 4 -22 4 -22 6 5 2 45 -36 172 -71 237 -44 83
-95 137 -152 164 -61 28 -47 32 16 5 82 -35 176 -175 212 -316 70 -276 28
-663 -101 -907 -19 -37 -32 -71 -29 -77 4 -5 2 -12 -4 -16 -5 -3 -10 -1 -10 5
0 6 -18 -10 -40 -35 -47 -54 -53 -71 -10 -30 27 26 35 26 31 1 -1 -5 5 -4 13
4 19 15 21 0 4 -19 -10 -11 -10 -12 -1 -7 20 11 65 94 58 106 -4 6 -1 9 7 8 8
-2 13 6 12 19 0 12 3 20 6 18 11 -7 55 99 84 197 91 314 86 656 -14 921 -30
80 -114 203 -163 238 -22 16 -43 29 -46 29 -3 0 -33 -13 -66 -29z m126 -1454
c-13 -13 -26 -3 -16 12 3 6 11 8 17 5 6 -4 6 -10 -1 -17z"/>
      <path d="M11823 2149 c-13 -5 -23 -13 -23 -19 0 -14 11 -12 34 5 24 18 18 25
-11 14z"/>
      <path d="M5454 2099 c4 -29 12 -57 18 -60 5 -4 49 -10 96 -13 48 -4 97 -10
110 -13 21 -5 22 -2 22 55 0 59 0 59 -92 66 -51 4 -108 10 -127 13 -34 6 -34
6 -27 -48z"/>
      <path d="M9913 2133 c9 -2 23 -2 30 0 6 3 -1 5 -18 5 -16 0 -22 -2 -12 -5z"/>
      <path d="M5715 2071 c4 -31 8 -57 9 -58 2 -2 203 -23 226 -23 15 0 16 7 12 53
-2 28 -6 53 -7 55 -2 2 -58 9 -125 16 -122 12 -122 12 -115 -43z"/>
      <path d="M11700 2110 c-12 -8 -11 -10 7 -10 12 0 25 5 28 10 8 13 -15 13 -35
0z"/>
      <path d="M3504 2064 c3 -26 10 -51 14 -56 4 -4 76 -10 161 -14 154 -7 154 -7
149 45 -3 28 -7 53 -9 55 -2 2 -76 7 -163 11 -159 7 -159 7 -152 -41z"/>
      <path d="M2561 2063 c2 -68 10 -77 79 -90 36 -7 78 -12 94 -13 28 0 29 1 23
46 -3 29 -1 41 4 33 5 -8 9 -29 9 -47 0 -37 14 -45 95 -56 28 -4 62 -9 77 -12
27 -5 27 -5 21 48 -3 29 -6 54 -7 55 -1 2 -374 63 -386 63 -6 0 -10 -12 -9
-27z"/>
      <path d="M3840 2049 c0 -24 4 -49 8 -55 4 -7 67 -14 166 -19 159 -7 159 -7
152 46 -4 30 -8 55 -9 56 -1 1 -73 5 -160 9 -157 7 -157 7 -157 -37z"/>
      <path d="M11513 2082 c-15 -5 -20 -11 -14 -20 6 -9 12 -8 26 8 10 11 16 20 14
19 -2 -1 -14 -4 -26 -7z"/>
      <path d="M4180 2027 c6 -62 5 -61 193 -70 153 -8 143 -12 131 65 -6 37 -6 37
-78 42 -39 3 -112 7 -161 9 -90 4 -90 4 -85 -46z"/>
      <path d="M4518 2008 c4 -55 4 -55 100 -61 54 -4 127 -7 165 -7 67 0 67 0 67
55 0 55 0 55 -63 55 -35 0 -111 3 -168 6 -104 7 -104 7 -101 -48z"/>
      <path d="M4862 2001 c3 -28 8 -54 12 -58 5 -6 317 -24 323 -19 1 1 -1 27 -4
59 -6 57 -6 57 -138 57 -73 0 -147 3 -165 7 -33 6 -33 6 -28 -46z"/>
      <path d="M11531 2031 c-21 -16 -23 -23 -17 -64 4 -26 12 -49 18 -53 7 -4 8 1
3 16 -4 13 -3 20 2 17 5 -3 7 11 6 31 -3 35 -2 34 25 -24 40 -84 53 -87 25 -6
-12 37 -23 75 -23 85 0 22 -9 21 -39 -2z"/>
      <path d="M2183 2023 c3 -10 8 -34 11 -54 6 -36 7 -36 81 -52 42 -10 80 -17 86
-17 6 0 9 21 7 52 -3 52 -3 52 -83 69 -102 23 -107 23 -102 2z"/>
      <path d="M2974 1979 c4 -30 12 -57 18 -60 5 -4 40 -9 77 -13 36 -4 77 -10 90
-13 23 -6 24 -5 19 47 -3 29 -11 56 -18 60 -7 4 -44 11 -84 14 -39 4 -80 10
-90 13 -17 5 -18 1 -12 -48z"/>
      <path d="M5200 2014 c0 -10 3 -36 6 -56 5 -31 11 -37 33 -40 23 -3 27 2 36 37
9 33 17 42 45 52 31 10 32 12 10 13 -14 0 -49 3 -77 6 -48 6 -53 5 -53 -12z"/>
      <path d="M2384 1949 c4 -30 8 -55 9 -56 2 -1 42 -10 90 -21 87 -19 87 -19 88
32 2 51 2 51 12 -1 10 -51 10 -52 56 -62 25 -5 67 -12 92 -16 47 -7 47 -7 43
42 -3 35 -2 43 5 28 5 -11 10 -34 10 -51 1 -30 1 -30 97 -45 96 -16 96 -16 92
33 -4 61 8 63 15 3 2 -26 7 -48 9 -51 3 -2 45 -10 94 -17 89 -13 89 -13 92 36
2 31 -1 53 -8 57 -7 4 -38 10 -69 14 -158 18 -644 102 -715 123 -17 5 -18 1
-12 -48z"/>
      <path d="M3190 1950 c3 -27 9 -52 12 -55 8 -9 297 -29 305 -22 3 4 2 28 -3 55
-9 47 -9 47 -94 54 -47 3 -117 9 -156 12 -70 7 -70 7 -64 -44z"/>
      <path d="M137 1968 c-4 -13 1 -18 16 -19 20 0 21 -1 3 -8 -15 -6 -6 -11 40
-24 71 -20 101 -21 132 -3 22 12 21 13 -29 24 -41 10 -55 10 -67 0 -13 -11
-15 -10 -10 2 4 12 -6 20 -37 31 -41 15 -44 15 -48 -3z m158 -48 c4 -6 -5 -10
-20 -10 -15 0 -24 4 -20 10 3 6 12 10 20 10 8 0 17 -4 20 -10z"/>
      <path d="M325 1982 c6 -6 24 -14 40 -18 21 -4 27 -3 20 4 -5 6 -23 14 -40 18
-21 4 -27 3 -20 -4z"/>
      <path d="M5648 1983 c12 -2 30 -2 40 0 9 3 -1 5 -23 4 -22 0 -30 -2 -17 -4z"/>
      <path d="M6221 1962 c-79 -76 -118 -173 -106 -271 10 -90 20 -87 20 7 0 66 5
94 18 117 10 17 15 21 11 10 -10 -29 -13 -128 -3 -118 4 4 9 27 11 50 3 23 9
47 14 55 5 7 16 26 24 42 15 29 83 79 124 92 12 4 24 12 29 18 5 8 9 8 15 0 4
-6 32 -15 62 -19 30 -4 64 -12 75 -18 11 -6 25 -10 32 -9 6 1 32 -21 58 -50
39 -45 44 -49 35 -23 -6 17 -24 46 -39 65 -42 54 -45 60 -22 60 12 0 27 -11
35 -27 14 -25 15 -26 16 -7 0 12 -6 26 -12 31 -7 6 -93 13 -191 16 -178 5
-178 5 -206 -21z"/>
      <path d="M5748 1973 c12 -2 32 -2 45 0 12 2 2 4 -23 4 -25 0 -35 -2 -22 -4z"/>
      <path d="M443 1963 c9 -2 23 -2 30 0 6 3 -1 5 -18 5 -16 0 -22 -2 -12 -5z"/>
      <path d="M3520 1925 c8 -54 20 -65 71 -65 20 0 84 -3 142 -7 107 -6 107 -6
107 45 0 28 -3 53 -7 55 -5 3 -78 8 -164 12 -156 7 -156 7 -149 -40z"/>
      <path d="M5843 1963 c15 -2 39 -2 55 0 15 2 2 4 -28 4 -30 0 -43 -2 -27 -4z"/>
      <path d="M3854 1928 c3 -13 6 -35 6 -50 0 -31 11 -34 198 -44 122 -6 122 -6
122 48 0 55 0 55 -112 61 -62 4 -137 7 -167 7 -50 0 -53 -1 -47 -22z"/>
      <path d="M5294 1910 c0 -33 1 -37 11 -22 22 31 25 62 7 62 -13 0 -17 -10 -18
-40z"/>
      <path d="M4194 1901 c3 -20 6 -43 6 -53 0 -17 -4 -16 251 -33 76 -5 76 -5 69
42 -5 27 -6 51 -4 55 4 6 -89 14 -245 21 -83 4 -83 4 -77 -32z"/>
      <path d="M4535 1868 c4 -29 8 -54 9 -54 0 -1 73 -5 162 -8 161 -7 161 -7 156
46 -2 29 -5 54 -6 54 0 1 -75 5 -165 9 -163 7 -163 7 -156 -47z"/>
      <path d="M11823 1874 c0 -41 2 -45 9 -23 5 14 5 36 0 49 -7 18 -9 13 -9 -26z"/>
      <path d="M4877 1871 c3 -20 6 -43 5 -53 0 -14 18 -17 136 -22 75 -4 150 -9
166 -11 29 -5 29 -5 22 52 -4 31 -4 54 0 51 3 -4 9 -31 13 -60 6 -50 8 -53 36
-56 30 -3 30 -3 25 55 -5 58 -5 58 -45 64 -22 4 -113 9 -203 11 -162 5 -162 5
-155 -31z"/>
      <path d="M11497 1898 c-6 -18 4 -98 22 -165 22 -82 80 -126 129 -97 27 15 27
15 -2 11 -21 -4 -36 3 -60 25 -17 16 -25 26 -17 22 7 -4 12 -3 9 2 -28 59 -44
99 -58 154 -10 42 -18 59 -23 48z"/>
      <path d="M368 1893 c18 -2 45 -2 60 0 15 2 0 4 -33 4 -33 0 -45 -2 -27 -4z"/>
      <path d="M765 1870 c-13 -6 -5 -7 25 -3 25 3 47 7 49 9 9 8 -55 2 -74 -6z"/>
      <path d="M1308 1859 c10 -10 189 -23 180 -14 -4 4 -48 10 -97 14 -50 3 -87 3
-83 0z"/>
      <path d="M6595 1846 c10 -14 19 -26 22 -26 7 0 -17 39 -28 46 -6 3 -3 -5 6
-20z"/>
      <path d="M810 1846 c-25 -6 -57 -20 -70 -30 -25 -18 -25 -18 13 -11 38 6 143
56 116 54 -8 0 -34 -6 -59 -13z"/>
      <path d="M3205 1814 c4 -27 10 -52 14 -55 9 -10 166 -29 238 -29 64 0 64 0 61
54 -3 53 -3 53 -103 60 -55 3 -126 9 -158 13 -59 6 -59 6 -52 -43z"/>
      <path d="M5302 1835 c0 -16 2 -22 5 -12 2 9 2 23 0 30 -3 6 -5 -1 -5 -18z"/>
      <path d="M5340 1835 c0 -32 17 -42 80 -48 55 -5 55 -5 13 5 -35 9 -43 15 -43
33 0 16 -7 24 -25 27 -21 4 -25 1 -25 -17z"/>
      <path d="M1530 1840 c25 -8 147 -13 139 -6 -2 2 -40 6 -84 8 -44 3 -69 2 -55
-2z"/>
      <path d="M7300 1815 c0 -14 2 -25 4 -25 2 0 6 11 8 25 3 14 1 25 -3 25 -5 0
-9 -11 -9 -25z"/>
      <path d="M1703 1823 c9 -2 23 -2 30 0 6 3 -1 5 -18 5 -16 0 -22 -2 -12 -5z"/>
      <path d="M3536 1789 c8 -56 25 -69 89 -69 29 0 93 -3 143 -6 91 -7 91 -7 85
47 -3 30 -6 55 -7 56 -1 1 -72 5 -159 9 -158 7 -158 7 -151 -37z"/>
      <path d="M1796 1811 c32 -14 187 -31 203 -22 24 14 -1 19 -114 25 -71 4 -103
3 -89 -3z"/>
      <path d="M3870 1785 c0 -16 3 -40 6 -51 6 -24 20 -26 224 -40 95 -6 95 -6 92
50 -4 56 -4 56 -40 57 -21 0 -92 4 -160 7 -122 7 -122 7 -122 -23z"/>
      <path d="M4210 1759 c0 -24 4 -49 8 -55 11 -18 153 -28 163 -12 13 20 11 28
-10 28 -29 0 -47 28 -33 51 11 17 9 19 -12 19 -13 0 -44 3 -70 6 -46 7 -46 7
-46 -37z"/>
      <path d="M2220 1786 c0 -26 76 -51 172 -56 12 0 -4 39 -19 44 -25 10 -153 19
-153 12z"/>
      <path d="M4539 1771 c0 -10 -2 -12 -6 -3 -2 6 -11 12 -19 12 -9 0 -12 -4 -9
-10 3 -5 0 -8 -7 -5 -7 3 -26 -4 -43 -16 -30 -21 -30 -21 18 -15 26 3 61 13
78 22 17 8 33 13 36 10 9 -9 -52 -34 -115 -46 -43 -9 -66 -19 -73 -32 -9 -17
-7 -18 18 -12 15 4 42 15 59 25 38 23 64 24 64 3 0 -14 2 -14 22 0 24 17 68
22 68 7 0 -5 -7 -14 -15 -21 -31 -26 -14 -31 19 -6 19 14 44 26 55 26 25 0 69
58 49 64 -7 3 -55 7 -105 9 -80 4 -93 2 -94 -12z"/>
      <path d="M7537 1758 c-31 -31 -31 -32 -2 -8 16 14 34 28 40 32 5 5 6 8 2 8 -4
0 -22 -15 -40 -32z"/>
      <path d="M4351 1766 c-10 -12 -8 -17 8 -25 29 -16 42 -13 76 14 30 25 30 25
-21 25 -33 0 -56 -5 -63 -14z"/>
      <path d="M5523 1773 c9 -2 25 -2 35 0 9 3 1 5 -18 5 -19 0 -27 -2 -17 -5z"/>
      <path d="M2405 1759 c-3 -3 4 -14 15 -24 22 -20 161 -28 167 -9 4 12 -175 45
-182 33z"/>
      <path d="M4734 1727 c-43 -59 -50 -72 -33 -62 27 16 59 49 59 62 0 7 5 13 10
13 16 0 12 -10 -16 -47 -18 -23 -21 -33 -11 -33 8 0 23 12 32 27 10 15 32 39
49 55 30 28 30 28 -14 28 -41 -1 -48 -4 -76 -43z"/>
      <path d="M4846 1747 c-16 -13 -26 -29 -22 -35 4 -6 -4 -18 -19 -28 -14 -9 -25
-20 -25 -25 0 -15 52 11 72 36 10 13 24 22 31 19 8 -3 22 4 32 16 22 24 9 27
-17 3 -13 -12 -18 -13 -18 -3 0 10 -5 9 -18 -3 -29 -26 -38 -20 -12 8 14 15
26 21 30 15 4 -6 13 -5 26 5 18 14 18 14 -6 15 -14 0 -38 -11 -54 -23z"/>
      <path d="M4950 1759 c0 -6 -5 -7 -12 -3 -6 4 -8 3 -4 -4 3 -6 -15 -28 -41 -51
-26 -22 -44 -43 -40 -47 3 -4 23 8 43 25 21 19 43 30 51 27 8 -3 17 -6 20 -6
3 0 -2 -11 -11 -25 -22 -33 -10 -31 38 5 22 17 43 30 48 30 12 0 10 -28 -4
-36 -7 -4 -8 -3 -4 4 12 20 -10 13 -29 -8 -18 -19 -17 -20 3 -20 11 0 35 12
54 28 33 27 33 27 15 0 -17 -28 -17 -28 52 -28 38 0 80 -4 93 -9 13 -5 76 -12
141 -16 117 -7 117 -7 118 47 1 41 3 48 9 28 4 -14 8 -39 9 -56 1 -31 1 -31
79 -38 42 -4 97 -9 122 -12 45 -6 45 -6 42 50 -2 34 -8 56 -15 56 -7 0 -86 9
-177 19 -343 40 -600 56 -600 40z"/>
      <path d="M7285 1740 c-11 -5 -14 -9 -7 -9 6 -1 11 -6 10 -12 -2 -6 2 -13 8
-16 6 -2 14 8 16 22 6 27 4 28 -27 15z"/>
      <path d="M2604 1721 c4 -6 14 -11 22 -11 8 0 13 -4 10 -9 -3 -5 11 -7 32 -4
27 3 33 1 22 -6 -13 -9 -13 -11 2 -11 9 0 19 4 22 9 7 11 59 1 68 -13 5 -6 8
-2 8 10 0 23 0 23 -139 40 -40 5 -52 4 -47 -5z"/>
      <path d="M4489 1691 c-24 -20 -24 -20 -1 -21 12 0 25 7 29 15 9 25 -2 27 -28
6z"/>
      <path d="M2812 1681 c7 -12 28 -21 56 -25 67 -9 122 -7 122 4 0 6 -13 10 -28
10 -16 0 -51 7 -78 15 -70 21 -87 20 -72 -4z"/>
      <path d="M4570 1685 c-20 -24 -6 -28 15 -5 10 11 13 20 8 20 -6 0 -16 -7 -23
-15z"/>
      <path d="M4660 1685 c-20 -24 -6 -28 15 -5 10 11 13 20 8 20 -6 0 -16 -7 -23
-15z"/>
      <path d="M5757 1646 c3 -28 7 -53 9 -55 2 -2 42 -7 91 -12 48 -5 103 -11 121
-13 33 -5 33 -5 30 47 -3 52 -3 52 -93 64 -49 6 -107 14 -127 16 -37 5 -37 5
-31 -47z"/>
      <path d="M4910 1670 c-6 -11 -7 -20 -2 -20 10 0 32 21 32 32 0 16 -19 8 -30
-12z"/>
      <path d="M3025 1650 c11 -5 29 -9 40 -9 20 0 20 0 0 9 -11 5 -29 9 -40 9 -20
0 -20 0 0 -9z"/>
      <path d="M7275 1650 c-16 -7 -17 -9 -3 -9 9 -1 18 -9 20 -18 3 -13 6 -10 10
10 6 29 4 30 -27 17z"/>
      <path d="M4413 1643 c9 -2 25 -2 35 0 9 3 1 5 -18 5 -19 0 -27 -2 -17 -5z"/>
      <path d="M3303 1623 c9 -2 23 -2 30 0 6 3 -1 5 -18 5 -16 0 -22 -2 -12 -5z"/>
      <path d="M185 1599 c-4 -6 -3 -15 3 -21 6 -6 11 -4 15 6 7 18 -9 31 -18 15z"/>
      <path d="M4278 1543 c12 -2 30 -2 40 0 9 3 -1 5 -23 4 -22 0 -30 -2 -17 -4z"/>
      <path d="M7242 1536 c-25 -6 -40 -15 -35 -20 5 -5 3 -6 -5 -2 -7 4 -38 2 -70
-5 -31 -7 -49 -14 -39 -17 9 -2 17 -7 17 -11 0 -15 -23 -29 -38 -24 -11 5 -13
2 -7 -8 6 -11 5 -12 -5 -2 -10 9 -17 10 -27 2 -32 -27 8 -40 61 -19 14 5 47
12 73 16 56 7 97 38 83 63 -7 13 -1 18 28 27 48 15 20 15 -36 0z"/>
      <path d="M7646 1477 c-17 -13 -18 -14 -2 -20 10 -4 15 -11 12 -16 -3 -5 5 -20
18 -34 13 -14 21 -29 17 -32 -3 -4 5 -5 19 -3 37 5 40 58 6 93 -28 28 -44 31
-70 12z"/>
      <path d="M5400 1445 c19 -9 43 -14 52 -11 10 2 16 0 12 -5 -3 -5 4 -9 15 -9
14 0 19 5 15 15 -4 8 -16 15 -28 15 -11 0 -39 3 -61 6 -40 5 -40 5 -5 -11z"/>
      <path d="M4293 1443 c9 -2 25 -2 35 0 9 3 1 5 -18 5 -19 0 -27 -2 -17 -5z"/>
      <path d="M5515 1432 c6 -6 57 -13 114 -17 57 -3 108 -8 113 -11 4 -3 8 -1 8 4
0 5 -28 12 -62 16 -169 18 -183 18 -173 8z"/>
      <path d="M6413 1413 c9 -2 25 -2 35 0 9 3 1 5 -18 5 -19 0 -27 -2 -17 -5z"/>
      <path d="M5793 1403 c9 -2 23 -2 30 0 6 3 -1 5 -18 5 -16 0 -22 -2 -12 -5z"/>
      <path d="M6423 1323 c9 -2 25 -2 35 0 9 3 1 5 -18 5 -19 0 -27 -2 -17 -5z"/>
      <path d="M6380 1280 c36 -8 32 -14 -7 -10 -13 1 -23 -4 -23 -10 0 -9 25 -10
93 -6 50 4 153 10 227 13 194 9 125 21 -120 21 -114 0 -189 -4 -170 -8z"/>
      <path d="M5942 1249 c1 -13 11 -25 20 -27 15 -3 16 1 9 19 -11 32 -34 38 -29
8z"/>
      <path d="M6655 1249 c-50 -6 -50 -6 13 -7 34 -1 62 0 62 2 0 9 -28 11 -75 5z"/>
      <path d="M6870 1181 c0 -5 9 -7 20 -4 11 3 20 7 20 9 0 2 -9 4 -20 4 -11 0
-20 -4 -20 -9z"/>
      <path d="M7569 1113 c12 -24 49 -48 59 -39 3 3 0 6 -6 6 -6 0 -23 12 -38 28
-22 23 -24 24 -15 5z"/>
      <path d="M7361 996 c-12 -14 -12 -16 3 -10 11 4 16 1 16 -12 1 -23 29 -76 29
-54 0 8 -7 32 -17 54 -16 35 -19 37 -31 22z"/>
      <path d="M6448 889 c-29 -21 -37 -56 -17 -76 16 -16 49 -4 54 21 16 75 7 88
-37 55z"/>
      <path d="M6317 817 c-10 -15 -12 -29 -6 -38 7 -11 9 -9 9 7 0 11 5 25 12 32 6
6 9 14 6 17 -3 3 -12 -5 -21 -18z"/>
      <path d="M7245 794 c-10 -8 -22 -11 -26 -8 -27 16 34 -137 77 -194 35 -45 120
-100 169 -109 56 -10 129 -7 133 5 2 6 10 8 19 5 12 -5 14 -3 8 7 -5 8 -4 11
2 7 14 -9 63 15 63 30 0 7 10 21 22 33 28 26 12 26 -27 0 -44 -30 -159 -62
-192 -54 -38 9 -104 47 -128 75 -11 12 -14 19 -7 15 7 -5 12 -1 12 9 0 11 -5
15 -15 11 -16 -6 -51 35 -84 101 -23 46 -27 68 -11 58 6 -3 10 -12 10 -20 0
-16 70 -138 76 -133 2 3 -16 43 -40 89 -39 77 -45 84 -61 73z"/>
      <path d="M6476 695 c-10 -7 -15 -19 -11 -24 8 -14 22 -6 35 20 12 22 3 24 -24
4z"/>
      <path d="M6396 691 c-4 -7 -5 -15 -2 -18 9 -9 19 4 14 18 -4 11 -6 11 -12 0z"/>
      <path d="M6514 659 c-10 -17 13 -36 27 -22 12 12 4 33 -11 33 -5 0 -12 -5 -16
-11z"/>
    </g>
  </g>
</svg>
